<svg xmlns="http://www.w3.org/2000/svg" width="358.001" height="356.841" viewBox="-87.568 -74.546 358.001 356.841"><title>Neo4j Graph Visualization</title><desc>Created using Neo4j (http://www.neo4j.com/)</desc><g class="layer relationships"><g class="relationship"><path fill="#A5ABB6" stroke="none" d="M 40 0.5 L 43.596212079190664 0.5 L 43.596212079190664 -0.5 L 40 -0.5 Z M 102.95168082919066 0.5 L 106.54789290838133 0.5 L 106.54789290838133 3.5 L 113.54789290838133 0 L 106.54789290838133 -3.5 L 106.54789290838133 -0.5 L 102.95168082919066 -0.5 Z" class="outline" transform="translate(90.26165600844271 105.96107942938713) rotate(394.2172888239626)"/><text x="73.274" y="3" fill="#000" font-family="sans-serif" font-size="8" pointer-events="none" text-anchor="middle" transform="translate(90.26165600844271 105.96107942938713) rotate(394.2172888239626)">KEY_PHRASE</text></g><g class="relationship"><path fill="#A5ABB6" stroke="none" d="M 40 0.5 L 42.36866597004361 0.5 L 42.36866597004361 -0.5 L 40 -0.5 Z M 101.72413472004361 0.5 L 104.09280069008722 0.5 L 104.09280069008722 3.5 L 111.09280069008722 0 L 104.09280069008722 -3.5 L 104.09280069008722 -0.5 L 101.72413472004361 -0.5 Z" class="outline" transform="translate(90.26165600844271 105.96107942938713) rotate(428.0831418469552)"/><text x="72.046" y="3" fill="#000" font-family="sans-serif" font-size="8" pointer-events="none" text-anchor="middle" transform="translate(90.26165600844271 105.96107942938713) rotate(428.0831418469552)">KEY_PHRASE</text></g><g class="relationship"><path fill="#A5ABB6" stroke="none" d="M 40 0.5 L 42.52208300122149 0.5 L 42.52208300122149 -0.5 L 40 -0.5 Z M 101.87755175122149 0.5 L 104.39963475244298 0.5 L 104.39963475244298 3.5 L 111.39963475244298 0 L 104.39963475244298 -3.5 L 104.39963475244298 -0.5 L 101.87755175122149 -0.5 Z" class="outline" transform="translate(90.26165600844271 105.96107942938713) rotate(363.23102451389474)"/><text x="72.2" y="3" fill="#000" font-family="sans-serif" font-size="8" pointer-events="none" text-anchor="middle" transform="translate(90.26165600844271 105.96107942938713) rotate(363.23102451389474)">KEY_PHRASE</text></g><g class="relationship"><path fill="#A5ABB6" stroke="none" d="M 40 0.5 L 42.44613558854297 0.5 L 42.44613558854297 -0.5 L 40 -0.5 Z M 101.80160433854297 0.5 L 104.24773992708595 0.5 L 104.24773992708595 3.5 L 111.24773992708595 0 L 104.24773992708595 -3.5 L 104.24773992708595 -0.5 L 101.80160433854297 -0.5 Z" class="outline" transform="translate(90.26165600844271 105.96107942938713) rotate(332.6091188602545)"/><text x="72.124" y="3" fill="#000" font-family="sans-serif" font-size="8" pointer-events="none" text-anchor="middle" transform="translate(90.26165600844271 105.96107942938713) rotate(332.6091188602545)">KEY_PHRASE</text></g><g class="relationship"><path fill="#A5ABB6" stroke="none" d="M 40 0.5 L 42.59706934237683 0.5 L 42.59706934237683 -0.5 L 40 -0.5 Z M 101.95253809237683 0.5 L 104.54960743475365 0.5 L 104.54960743475365 3.5 L 111.54960743475365 0 L 104.54960743475365 -3.5 L 104.54960743475365 -0.5 L 101.95253809237683 -0.5 Z" class="outline" transform="translate(90.26165600844271 105.96107942938713) rotate(271.3886611180699)"/><text x="72.275" y="3" fill="#000" font-family="sans-serif" font-size="8" pointer-events="none" text-anchor="middle" transform="translate(90.26165600844271 105.96107942938713) rotate(271.3886611180699)">KEY_PHRASE</text></g><g class="relationship"><path fill="#A5ABB6" stroke="none" d="M 40 0.5 L 42.95567325046625 0.5 L 42.95567325046625 -0.5 L 40 -0.5 Z M 102.31114200046625 0.5 L 105.2668152509325 0.5 L 105.2668152509325 3.5 L 112.2668152509325 0 L 105.2668152509325 -3.5 L 105.2668152509325 -0.5 L 102.31114200046625 -0.5 Z" class="outline" transform="translate(90.26165600844271 105.96107942938713) rotate(239.10774090288282)"/><text x="72.633" y="3" fill="#000" font-family="sans-serif" font-size="8" pointer-events="none" text-anchor="middle" transform="translate(90.26165600844271 105.96107942938713) rotate(239.10774090288282) rotate(180 72.63340762546625 0)">KEY_PHRASE</text></g><g class="relationship"><path fill="#A5ABB6" stroke="none" d="M 40 0.5 L 42.51339652613137 0.5 L 42.51339652613137 -0.5 L 40 -0.5 Z M 101.86886527613137 0.5 L 104.38226180226275 0.5 L 104.38226180226275 3.5 L 111.38226180226275 0 L 104.38226180226275 -3.5 L 104.38226180226275 -0.5 L 101.86886527613137 -0.5 Z" class="outline" transform="translate(90.26165600844271 105.96107942938713) rotate(205.5152017562458)"/><text x="72.191" y="3" fill="#000" font-family="sans-serif" font-size="8" pointer-events="none" text-anchor="middle" transform="translate(90.26165600844271 105.96107942938713) rotate(205.5152017562458) rotate(180 72.19113090113137 0)">KEY_PHRASE</text></g><g class="relationship"><path fill="#A5ABB6" stroke="none" d="M 40 0.5 L 42.17869885860149 0.5 L 42.17869885860149 -0.5 L 40 -0.5 Z M 101.53416760860149 0.5 L 103.71286646720299 0.5 L 103.71286646720299 3.5 L 110.71286646720299 0 L 103.71286646720299 -3.5 L 103.71286646720299 -0.5 L 101.53416760860149 -0.5 Z" class="outline" transform="translate(90.26165600844271 105.96107942938713) rotate(530.6985741399865)"/><text x="71.856" y="3" fill="#000" font-family="sans-serif" font-size="8" pointer-events="none" text-anchor="middle" transform="translate(90.26165600844271 105.96107942938713) rotate(530.6985741399865) rotate(180 71.85643323360149 0)">KEY_PHRASE</text></g><g class="relationship"><path fill="#A5ABB6" stroke="none" d="M 40 0.5 L 42.5130092801497 0.5 L 42.5130092801497 -0.5 L 40 -0.5 Z M 101.8684780301497 0.5 L 104.3814873102994 0.5 L 104.3814873102994 3.5 L 111.3814873102994 0 L 104.3814873102994 -3.5 L 104.3814873102994 -0.5 L 101.8684780301497 -0.5 Z" class="outline" transform="translate(90.26165600844271 105.96107942938713) rotate(495.87932873994816)"/><text x="72.191" y="3" fill="#000" font-family="sans-serif" font-size="8" pointer-events="none" text-anchor="middle" transform="translate(90.26165600844271 105.96107942938713) rotate(495.87932873994816) rotate(180 72.1907436551497 0)">KEY_PHRASE</text></g><g class="relationship"><path fill="#A5ABB6" stroke="none" d="M 40 0.5 L 42.052583931856844 0.5 L 42.052583931856844 -0.5 L 40 -0.5 Z M 101.40805268185684 0.5 L 103.46063661371369 0.5 L 103.46063661371369 3.5 L 110.46063661371369 0 L 103.46063661371369 -3.5 L 103.46063661371369 -0.5 L 101.40805268185684 -0.5 Z" class="outline" transform="translate(90.26165600844271 105.96107942938713) rotate(462.00585334177686)"/><text x="71.73" y="3" fill="#000" font-family="sans-serif" font-size="8" pointer-events="none" text-anchor="middle" transform="translate(90.26165600844271 105.96107942938713) rotate(462.00585334177686) rotate(180 71.73031830685684 0)">KEY_PHRASE</text></g><g class="relationship"><path fill="#A5ABB6" stroke="none" d="M 40 0.5 L 43.200026677906806 0.5 L 43.200026677906806 -0.5 L 40 -0.5 Z M 102.5554954279068 0.5 L 105.75552210581361 0.5 L 105.75552210581361 3.5 L 112.75552210581361 0 L 105.75552210581361 -3.5 L 105.75552210581361 -0.5 L 102.5554954279068 -0.5 Z" class="outline" transform="translate(90.26165600844271 105.96107942938713) rotate(302.53276555428)"/><text x="72.878" y="3" fill="#000" font-family="sans-serif" font-size="8" pointer-events="none" text-anchor="middle" transform="translate(90.26165600844271 105.96107942938713) rotate(302.53276555428)">KEY_PHRASE</text></g></g><g class="layer nodes"><g class="node" transform="translate(90.26165600844271,105.96107942938713)"><circle cx="0" cy="0" r="40" fill="#F79767" stroke="#f36924" stroke-width="2" class="outline"/><text y="5" fill="#FFF" font-family="sans-serif" font-size="10" pointer-events="none" text-anchor="middle">https://neo4j.co…</text></g><g class="node" transform="translate(211.03025491489979,188.0886176924406)"><circle cx="0" cy="0" r="32.5" fill="#8DCC93" stroke="#5db665" stroke-width="2" class="outline"/><text y="5" fill="#604A0E" font-family="sans-serif" font-size="10" pointer-events="none" text-anchor="middle">These days</text></g><g class="node" transform="translate(143.85921449092555,239.17592145061215)"><circle cx="0" cy="0" r="32.5" fill="#8DCC93" stroke="#5db665" stroke-width="2" class="outline"/><text y="0" fill="#604A0E" font-family="sans-serif" font-size="10" pointer-events="none" text-anchor="middle">more than a</text><text y="10" fill="#604A0E" font-family="sans-serif" font-size="10" pointer-events="none" text-anchor="middle">few feet</text></g><g class="node" transform="translate(233.9325466909916,114.07156969629402)"><circle cx="0" cy="0" r="32.5" fill="#8DCC93" stroke="#5db665" stroke-width="2" class="outline"/><text y="0" fill="#604A0E" font-family="sans-serif" font-size="10" pointer-events="none" text-anchor="middle">my Nintendo</text><text y="10" fill="#604A0E" font-family="sans-serif" font-size="10" pointer-events="none" text-anchor="middle">Switch</text></g><g class="node" transform="translate(217.89363795035487,39.82871277186798)"><circle cx="0" cy="0" r="32.5" fill="#8DCC93" stroke="#5db665" stroke-width="2" class="outline"/><text y="5" fill="#604A0E" font-family="sans-serif" font-size="10" pointer-events="none" text-anchor="middle">board games</text></g><g class="node" transform="translate(93.75260258527669,-38.04622140673136)"><circle cx="0" cy="0" r="32.5" fill="#8DCC93" stroke="#5db665" stroke-width="2" class="outline"/><text y="5" fill="#604A0E" font-family="sans-serif" font-size="10" pointer-events="none" text-anchor="middle">card games</text></g><g class="node" transform="translate(15.934707684072851,-18.268287270616923)"><circle cx="0" cy="0" r="32.5" fill="#8DCC93" stroke="#5db665" stroke-width="2" class="outline"/><text y="0" fill="#604A0E" font-family="sans-serif" font-size="10" pointer-events="none" text-anchor="middle">role playing</text><text y="10" fill="#604A0E" font-family="sans-serif" font-size="10" pointer-events="none" text-anchor="middle">games</text></g><g class="node" transform="translate(-39.587916866239745,43.98371512920563)"><circle cx="0" cy="0" r="32.5" fill="#8DCC93" stroke="#5db665" stroke-width="2" class="outline"/><text y="5" fill="#604A0E" font-family="sans-serif" font-size="10" pointer-events="none" text-anchor="middle">friends</text></g><g class="node" transform="translate(-51.068203929796475,129.10834301691747)"><circle cx="0" cy="0" r="32.5" fill="#8DCC93" stroke="#5db665" stroke-width="2" class="outline"/><text y="5" fill="#604A0E" font-family="sans-serif" font-size="10" pointer-events="none" text-anchor="middle">a week</text></g><g class="node" transform="translate(-13.027292382384374,206.12731890627327)"><circle cx="0" cy="0" r="32.5" fill="#8DCC93" stroke="#5db665" stroke-width="2" class="outline"/><text y="0" fill="#604A0E" font-family="sans-serif" font-size="10" pointer-events="none" text-anchor="middle">lunch-time</text><text y="10" fill="#604A0E" font-family="sans-serif" font-size="10" pointer-events="none" text-anchor="middle">Mario Kart</text></g><g class="node" transform="translate(60.524182765337464,245.79464587934183)"><circle cx="0" cy="0" r="32.5" fill="#8DCC93" stroke="#5db665" stroke-width="2" class="outline"/><text y="0" fill="#604A0E" font-family="sans-serif" font-size="10" pointer-events="none" text-anchor="middle">8</text><text y="10" fill="#604A0E" font-family="sans-serif" font-size="10" pointer-events="none" text-anchor="middle">tournaments</text></g><g class="node" transform="translate(168.37743621849756,-16.50153357722363)"><circle cx="0" cy="0" r="32.5" fill="#8DCC93" stroke="#5db665" stroke-width="2" class="outline"/><text y="-5" fill="#604A0E" font-family="sans-serif" font-size="10" pointer-events="none" text-anchor="middle">the Neo4j</text><text y="5" fill="#604A0E" font-family="sans-serif" font-size="10" pointer-events="none" text-anchor="middle">European</text><text y="15" fill="#604A0E" font-family="sans-serif" font-size="10" pointer-events="none" text-anchor="middle">offices</text></g></g></svg>