<svg xmlns="http://www.w3.org/2000/svg" width="1166.006" height="706.13" viewBox="-499.827 -253.428 1166.006 706.13"><title>Neo4j Graph Visualization</title><desc>Created using Neo4j (http://www.neo4j.com/)</desc><g class="layer relationships"><g class="relationship"><path fill="#A5ABB6" stroke="none" d="M 40 0.5 L 63.4819276265559 0.5 L 63.4819276265559 -0.5 L 40 -0.5 Z M 111.7475526265559 0.5 L 135.2294802531118 0.5 L 135.2294802531118 3.5 L 142.2294802531118 0 L 135.2294802531118 -3.5 L 135.2294802531118 -0.5 L 111.7475526265559 -0.5 Z" class="outline" transform="translate(412.07694654617876 81.62320728886036) rotate(380.2508605220018)"/><text x="87.615" y="3" fill="#000" font-family="sans-serif" font-size="8" pointer-events="none" text-anchor="middle" transform="translate(412.07694654617876 81.62320728886036) rotate(380.2508605220018)">0.17967656</text></g><g class="relationship"><path fill="#A5ABB6" stroke="none" d="M 40 0.5 L 71.95054594595402 0.5 L 71.95054594595402 -0.5 L 40 -0.5 Z M 120.21617094595402 0.5 L 152.16671689190804 0.5 L 152.16671689190804 3.5 L 159.16671689190804 0 L 152.16671689190804 -3.5 L 152.16671689190804 -0.5 L 120.21617094595402 -0.5 Z" class="outline" transform="translate(412.07694654617876 81.62320728886036) rotate(437.2751417131591)"/><text x="96.083" y="3" fill="#000" font-family="sans-serif" font-size="8" pointer-events="none" text-anchor="middle" transform="translate(412.07694654617876 81.62320728886036) rotate(437.2751417131591)">0.16441391</text></g><g class="relationship"><path fill="#A5ABB6" stroke="none" d="M 40 0.5 L 98.48777067261005 0.5 L 98.48777067261005 -0.5 L 40 -0.5 Z M 137.85495817261005 0.5 L 196.3427288452201 0.5 L 196.3427288452201 3.5 L 203.3427288452201 0 L 196.3427288452201 -3.5 L 196.3427288452201 -0.5 L 137.85495817261005 -0.5 Z" class="outline" transform="translate(412.07694654617876 81.62320728886036) rotate(490.0108753716256)"/><text x="118.171" y="3" fill="#000" font-family="sans-serif" font-size="8" pointer-events="none" text-anchor="middle" transform="translate(412.07694654617876 81.62320728886036) rotate(490.0108753716256) rotate(180 118.17136442261005 0)">0.143287</text></g><g class="relationship"><path fill="#A5ABB6" stroke="none" d="M 40 0.5 L 88.3720181777288 0.5 L 88.3720181777288 -0.5 L 40 -0.5 Z M 136.63764317772882 0.5 L 185.0096613554576 0.5 L 185.0096613554576 3.5 L 192.0096613554576 0 L 185.0096613554576 -3.5 L 185.0096613554576 -0.5 L 136.63764317772882 -0.5 Z" class="outline" transform="translate(412.07694654617876 81.62320728886036) rotate(408.0001403049957)"/><text x="112.505" y="3" fill="#000" font-family="sans-serif" font-size="8" pointer-events="none" text-anchor="middle" transform="translate(412.07694654617876 81.62320728886036) rotate(408.0001403049957)">0.13336793</text></g><g class="relationship"><path fill="#A5ABB6" stroke="none" d="M 40 0.5 L 105.88674607434916 0.5 L 105.88674607434916 -0.5 L 40 -0.5 Z M 152.96487107434916 0.5 L 218.85161714869832 0.5 L 218.85161714869832 3.5 L 225.85161714869832 0 L 218.85161714869832 -3.5 L 218.85161714869832 -0.5 L 152.96487107434916 -0.5 Z" class="outline" transform="translate(412.07694654617876 81.62320728886036) rotate(512.9481639111888)"/><text x="129.426" y="3" fill="#000" font-family="sans-serif" font-size="8" pointer-events="none" text-anchor="middle" transform="translate(412.07694654617876 81.62320728886036) rotate(512.9481639111888) rotate(180 129.42580857434916 0)">0.12601112</text></g><g class="relationship"><path fill="#A5ABB6" stroke="none" d="M 40 0.5 L 80.35586586113271 0.5 L 80.35586586113271 -0.5 L 40 -0.5 Z M 128.6214908611327 0.5 L 168.97735672226543 0.5 L 168.97735672226543 3.5 L 175.97735672226543 0 L 168.97735672226543 -3.5 L 168.97735672226543 -0.5 L 128.6214908611327 -0.5 Z" class="outline" transform="translate(412.07694654617876 81.62320728886036) rotate(346.60512151923285)"/><text x="104.489" y="3" fill="#000" font-family="sans-serif" font-size="8" pointer-events="none" text-anchor="middle" transform="translate(412.07694654617876 81.62320728886036) rotate(346.60512151923285)">0.08861496</text></g><g class="relationship"><path fill="#A5ABB6" stroke="none" d="M 40 0.5 L 90.31104279600274 0.5 L 90.31104279600274 -0.5 L 40 -0.5 Z M 134.12744904600274 0.5 L 184.43849184200548 0.5 L 184.43849184200548 3.5 L 191.43849184200548 0 L 184.43849184200548 -3.5 L 184.43849184200548 -0.5 L 134.12744904600274 -0.5 Z" class="outline" transform="translate(412.07694654617876 81.62320728886036) rotate(315.25854532063295)"/><text x="112.219" y="3" fill="#000" font-family="sans-serif" font-size="8" pointer-events="none" text-anchor="middle" transform="translate(412.07694654617876 81.62320728886036) rotate(315.25854532063295)">0.0603245</text></g><g class="relationship"><path fill="#A5ABB6" stroke="none" d="M 40 0.5 L 72.93271764120958 0.5 L 72.93271764120958 -0.5 L 40 -0.5 Z M 125.64756139120958 0.5 L 158.58027903241916 0.5 L 158.58027903241916 3.5 L 165.58027903241916 0 L 158.58027903241916 -3.5 L 158.58027903241916 -0.5 L 125.64756139120958 -0.5 Z" class="outline" transform="translate(412.07694654617876 81.62320728886036) rotate(237.82683828557646)"/><text x="99.29" y="3" fill="#000" font-family="sans-serif" font-size="8" pointer-events="none" text-anchor="middle" transform="translate(412.07694654617876 81.62320728886036) rotate(237.82683828557646) rotate(180 99.29013951620958 0)">0.034420907</text></g><g class="relationship"><path fill="#A5ABB6" stroke="none" d="M 40 0.5 L 77.2207109140378 0.5 L 77.2207109140378 -0.5 L 40 -0.5 Z M 129.9355546640378 0.5 L 167.1562655780756 0.5 L 167.1562655780756 3.5 L 174.1562655780756 0 L 167.1562655780756 -3.5 L 167.1562655780756 -0.5 L 129.9355546640378 -0.5 Z" class="outline" transform="translate(412.07694654617876 81.62320728886036) rotate(280.2447219183973)"/><text x="103.578" y="3" fill="#000" font-family="sans-serif" font-size="8" pointer-events="none" text-anchor="middle" transform="translate(412.07694654617876 81.62320728886036) rotate(280.2447219183973)">0.029095741</text></g><g class="relationship"><path fill="#A5ABB6" stroke="none" d="M 40 0.5 L 118.16612685613435 0.5 L 118.16612685613435 -0.5 L 40 -0.5 Z M 170.88097060613435 0.5 L 249.0470974622687 0.5 L 249.0470974622687 3.5 L 256.0470974622687 0 L 249.0470974622687 -3.5 L 249.0470974622687 -0.5 L 170.88097060613435 -0.5 Z" class="outline" transform="translate(412.07694654617876 81.62320728886036) rotate(259.45894271244214)"/><text x="144.524" y="3" fill="#000" font-family="sans-serif" font-size="8" pointer-events="none" text-anchor="middle" transform="translate(412.07694654617876 81.62320728886036) rotate(259.45894271244214) rotate(180 144.52354873113435 0)">0.020393685</text></g><g class="relationship"><path fill="#A5ABB6" stroke="none" d="M 40 0.5 L 87.43055445506614 0.5 L 87.43055445506614 -0.5 L 40 -0.5 Z M 140.14539820506616 0.5 L 187.5759526601323 0.5 L 187.5759526601323 3.5 L 194.5759526601323 0 L 187.5759526601323 -3.5 L 187.5759526601323 -0.5 L 140.14539820506616 -0.5 Z" class="outline" transform="translate(412.07694654617876 81.62320728886036) rotate(465.27027210875883)"/><text x="113.788" y="3" fill="#000" font-family="sans-serif" font-size="8" pointer-events="none" text-anchor="middle" transform="translate(412.07694654617876 81.62320728886036) rotate(465.27027210875883) rotate(180 113.78797633006614 0)">0.020393685</text></g><g class="relationship"><path fill="#A5ABB6" stroke="none" d="M 40 0.5 L 110.7286593647176 0.5 L 110.7286593647176 -0.5 L 40 -0.5 Z M 121.1778781147176 0.5 L 191.9065374794352 0.5 L 191.9065374794352 3.5 L 198.9065374794352 0 L 191.9065374794352 -3.5 L 191.9065374794352 -0.5 L 121.1778781147176 -0.5 Z" class="outline" transform="translate(412.07694654617876 81.62320728886036) rotate(182.54939073446405)"/><text x="115.953" y="3" fill="#000" font-family="sans-serif" font-size="8" pointer-events="none" text-anchor="middle" transform="translate(412.07694654617876 81.62320728886036) rotate(182.54939073446405) rotate(180 115.9532687397176 0)">0</text></g><g class="relationship"><path fill="#A5ABB6" stroke="none" d="M 40 0.5 L 128.48914323694612 0.5 L 128.48914323694612 -0.5 L 40 -0.5 Z M 176.75476823694612 0.5 L 265.24391147389224 0.5 L 265.24391147389224 3.5 L 272.24391147389224 0 L 265.24391147389224 -3.5 L 265.24391147389224 -0.5 L 176.75476823694612 -0.5 Z" class="outline" transform="translate(-147.56272096144062 100.86152112230315) rotate(497.08425752186616)"/><text x="152.622" y="3" fill="#000" font-family="sans-serif" font-size="8" pointer-events="none" text-anchor="middle" transform="translate(-147.56272096144062 100.86152112230315) rotate(497.08425752186616) rotate(180 152.62195573694612 0)">0.76108575</text></g><g class="relationship"><path fill="#A5ABB6" stroke="none" d="M 40 0.5 L 141.61851848304 0.5 L 141.61851848304 -0.5 L 40 -0.5 Z M 189.88414348304 0.5 L 291.50266196608 0.5 L 291.50266196608 3.5 L 298.50266196608 0 L 291.50266196608 -3.5 L 291.50266196608 -0.5 L 189.88414348304 -0.5 Z" class="outline" transform="translate(-147.56272096144062 100.86152112230315) rotate(377.4787635812287)"/><text x="165.751" y="3" fill="#000" font-family="sans-serif" font-size="8" pointer-events="none" text-anchor="middle" transform="translate(-147.56272096144062 100.86152112230315) rotate(377.4787635812287)">0.07424594</text></g><g class="relationship"><path fill="#A5ABB6" stroke="none" d="M 40 0.5 L 80.73822671628953 0.5 L 80.73822671628953 -0.5 L 40 -0.5 Z M 129.00385171628955 0.5 L 169.74207843257906 0.5 L 169.74207843257906 3.5 L 176.74207843257906 0 L 169.74207843257906 -3.5 L 169.74207843257906 -0.5 L 129.00385171628955 -0.5 Z" class="outline" transform="translate(-147.56272096144062 100.86152112230315) rotate(203.7050541657618)"/><text x="104.871" y="3" fill="#000" font-family="sans-serif" font-size="8" pointer-events="none" text-anchor="middle" transform="translate(-147.56272096144062 100.86152112230315) rotate(203.7050541657618) rotate(180 104.87103921628953 0)">0.07299799</text></g><g class="relationship"><path fill="#A5ABB6" stroke="none" d="M 40 0.5 L 113.14270905454407 0.5 L 113.14270905454407 -0.5 L 40 -0.5 Z M 165.26380280454407 0.5 L 238.40651185908814 0.5 L 238.40651185908814 3.5 L 245.40651185908814 0 L 238.40651185908814 -3.5 L 238.40651185908814 -0.5 L 165.26380280454407 -0.5 Z" class="outline" transform="translate(-147.56272096144062 100.86152112230315) rotate(524.8598528389203)"/><text x="139.203" y="3" fill="#000" font-family="sans-serif" font-size="8" pointer-events="none" text-anchor="middle" transform="translate(-147.56272096144062 100.86152112230315) rotate(524.8598528389203) rotate(180 139.20325592954407 0)">0.038113687</text></g><g class="relationship"><path fill="#A5ABB6" stroke="none" d="M 40 0.5 L 124.76867703331632 0.5 L 124.76867703331632 -0.5 L 40 -0.5 Z M 177.48352078331632 0.5 L 262.25219781663264 0.5 L 262.25219781663264 3.5 L 269.25219781663264 0 L 262.25219781663264 -3.5 L 262.25219781663264 -0.5 L 177.48352078331632 -0.5 Z" class="outline" transform="translate(-147.56272096144062 100.86152112230315) rotate(184.58139108413695)"/><text x="151.126" y="3" fill="#000" font-family="sans-serif" font-size="8" pointer-events="none" text-anchor="middle" transform="translate(-147.56272096144062 100.86152112230315) rotate(184.58139108413695) rotate(180 151.12609890831632 0)">0.015900765</text></g><g class="relationship"><path fill="#A5ABB6" stroke="none" d="M 40 0.5 L 123.16877789726774 0.5 L 123.16877789726774 -0.5 L 40 -0.5 Z M 175.88362164726774 0.5 L 259.0523995445355 0.5 L 259.0523995445355 3.5 L 266.0523995445355 0 L 259.0523995445355 -3.5 L 259.0523995445355 -0.5 L 175.88362164726774 -0.5 Z" class="outline" transform="translate(-147.56272096144062 100.86152112230315) rotate(476.618988684553)"/><text x="149.526" y="3" fill="#000" font-family="sans-serif" font-size="8" pointer-events="none" text-anchor="middle" transform="translate(-147.56272096144062 100.86152112230315) rotate(476.618988684553) rotate(180 149.52619977226774 0)">0.012772448</text></g><g class="relationship"><path fill="#A5ABB6" stroke="none" d="M 40 0.5 L 93.74196872684692 0.5 L 93.74196872684692 -0.5 L 40 -0.5 Z M 146.45681247684692 0.5 L 200.19878120369384 0.5 L 200.19878120369384 3.5 L 207.19878120369384 0 L 200.19878120369384 -3.5 L 200.19878120369384 -0.5 L 146.45681247684692 -0.5 Z" class="outline" transform="translate(-147.56272096144062 100.86152112230315) rotate(419.54923507630133)"/><text x="120.099" y="3" fill="#000" font-family="sans-serif" font-size="8" pointer-events="none" text-anchor="middle" transform="translate(-147.56272096144062 100.86152112230315) rotate(419.54923507630133)">0.009827374</text></g><g class="relationship"><path fill="#A5ABB6" stroke="none" d="M 40 0.5 L 107.59941473844157 0.5 L 107.59941473844157 -0.5 L 40 -0.5 Z M 155.86503973844157 0.5 L 223.46445447688313 0.5 L 223.46445447688313 3.5 L 230.46445447688313 0 L 223.46445447688313 -3.5 L 223.46445447688313 -0.5 L 155.86503973844157 -0.5 Z" class="outline" transform="translate(-147.56272096144062 100.86152112230315) rotate(249.03567660833426)"/><text x="131.732" y="3" fill="#000" font-family="sans-serif" font-size="8" pointer-events="none" text-anchor="middle" transform="translate(-147.56272096144062 100.86152112230315) rotate(249.03567660833426) rotate(180 131.73222723844157 0)">0.00700901</text></g><g class="relationship"><path fill="#A5ABB6" stroke="none" d="M 40 0.5 L 126.69887819538926 0.5 L 126.69887819538926 -0.5 L 40 -0.5 Z M 183.86294069538926 0.5 L 270.5618188907785 0.5 L 270.5618188907785 3.5 L 277.5618188907785 0 L 270.5618188907785 -3.5 L 270.5618188907785 -0.5 L 183.86294069538926 -0.5 Z" class="outline" transform="translate(-147.56272096144062 100.86152112230315) rotate(435.78634073248475)"/><text x="155.281" y="3" fill="#000" font-family="sans-serif" font-size="8" pointer-events="none" text-anchor="middle" transform="translate(-147.56272096144062 100.86152112230315) rotate(435.78634073248475)">0.0043996423</text></g><g class="relationship"><path fill="#A5ABB6" stroke="none" d="M 40 0.5 L 108.65746241686813 0.5 L 108.65746241686813 -0.5 L 40 -0.5 Z M 165.82152491686813 0.5 L 234.47898733373626 0.5 L 234.47898733373626 3.5 L 241.47898733373626 0 L 234.47898733373626 -3.5 L 234.47898733373626 -0.5 L 165.82152491686813 -0.5 Z" class="outline" transform="translate(-147.56272096144062 100.86152112230315) rotate(275.18850543534086)"/><text x="137.239" y="3" fill="#000" font-family="sans-serif" font-size="8" pointer-events="none" text-anchor="middle" transform="translate(-147.56272096144062 100.86152112230315) rotate(275.18850543534086)">0.0036473882</text></g><g class="relationship"><path fill="#A5ABB6" stroke="none" d="M 40 0.5 L 129.20479615737463 0.5 L 129.20479615737463 -0.5 L 40 -0.5 Z M 139.65401490737463 0.5 L 228.85881106474926 0.5 L 228.85881106474926 3.5 L 235.85881106474926 0 L 228.85881106474926 -3.5 L 228.85881106474926 -0.5 L 139.65401490737463 -0.5 Z" class="outline" transform="translate(-147.56272096144062 100.86152112230315) rotate(456.67620797180706)"/><text x="134.429" y="3" fill="#000" font-family="sans-serif" font-size="8" pointer-events="none" text-anchor="middle" transform="translate(-147.56272096144062 100.86152112230315) rotate(456.67620797180706) rotate(180 134.42940553237463 0)">0</text></g><g class="relationship"><path fill="#A5ABB6" stroke="none" d="M 40 0.5 L 131.55020651720287 0.5 L 131.55020651720287 -0.5 L 40 -0.5 Z M 141.99942526720287 0.5 L 233.54963178440573 0.5 L 233.54963178440573 3.5 L 240.54963178440573 0 L 233.54963178440573 -3.5 L 233.54963178440573 -0.5 L 141.99942526720287 -0.5 Z" class="outline" transform="translate(-147.56272096144062 100.86152112230315) rotate(223.15301836084745)"/><text x="136.775" y="3" fill="#000" font-family="sans-serif" font-size="8" pointer-events="none" text-anchor="middle" transform="translate(-147.56272096144062 100.86152112230315) rotate(223.15301836084745) rotate(180 136.77481589220287 0)">0</text></g><g class="relationship"><path fill="#A5ABB6" stroke="none" d="M 40 0.5 L 126.50905267727603 0.5 L 126.50905267727603 -0.5 L 40 -0.5 Z M 136.95827142727603 0.5 L 223.46732410455206 0.5 L 223.46732410455206 3.5 L 230.46732410455206 0 L 223.46732410455206 -3.5 L 223.46732410455206 -0.5 L 136.95827142727603 -0.5 Z" class="outline" transform="translate(-147.56272096144062 100.86152112230315) rotate(394.01777721896474)"/><text x="131.734" y="3" fill="#000" font-family="sans-serif" font-size="8" pointer-events="none" text-anchor="middle" transform="translate(-147.56272096144062 100.86152112230315) rotate(394.01777721896474)">0</text></g><g class="relationship"><path fill="#A5ABB6" stroke="none" d="M 40 0.5 L 109.91453728792612 0.5 L 109.91453728792612 -0.5 L 40 -0.5 Z M 120.36375603792612 0.5 L 190.27829332585225 0.5 L 190.27829332585225 3.5 L 197.27829332585225 0 L 190.27829332585225 -3.5 L 190.27829332585225 -0.5 L 120.36375603792612 -0.5 Z" class="outline" transform="translate(-147.56272096144062 100.86152112230315) rotate(293.1983348305883)"/><text x="115.139" y="3" fill="#000" font-family="sans-serif" font-size="8" pointer-events="none" text-anchor="middle" transform="translate(-147.56272096144062 100.86152112230315) rotate(293.1983348305883)">0</text></g><g class="relationship"><path fill="#A5ABB6" stroke="none" d="M 40 0.5 L 152.73820147193834 0.5 L 152.73820147193834 -0.5 L 40 -0.5 Z M 163.18742022193834 0.5 L 275.9256216938767 0.5 L 275.9256216938767 3.5 L 282.9256216938767 0 L 275.9256216938767 -3.5 L 275.9256216938767 -0.5 L 163.18742022193834 -0.5 Z" class="outline" transform="translate(-147.56272096144062 100.86152112230315) rotate(317.07671449284715)"/><text x="157.963" y="3" fill="#000" font-family="sans-serif" font-size="8" pointer-events="none" text-anchor="middle" transform="translate(-147.56272096144062 100.86152112230315) rotate(317.07671449284715)">0</text></g><g class="relationship"><path fill="#A5ABB6" stroke="none" d="M 40 0.5 L 174.96076743576745 0.5 L 174.96076743576745 -0.5 L 40 -0.5 Z M 185.40998618576745 0.5 L 320.3707536215349 0.5 L 320.3707536215349 3.5 L 327.3707536215349 0 L 320.3707536215349 -3.5 L 320.3707536215349 -0.5 L 185.40998618576745 -0.5 Z" class="outline" transform="translate(-147.56272096144062 100.86152112230315) rotate(334.47928541978183)"/><text x="180.185" y="3" fill="#000" font-family="sans-serif" font-size="8" pointer-events="none" text-anchor="middle" transform="translate(-147.56272096144062 100.86152112230315) rotate(334.47928541978183)">0</text></g><g class="relationship"><path fill="#A5ABB6" stroke="none" d="M 40 0.5 L 152.45339436841064 0.5 L 152.45339436841064 -0.5 L 40 -0.5 Z M 162.90261311841064 0.5 L 275.3560074868213 0.5 L 275.3560074868213 3.5 L 282.3560074868213 0 L 275.3560074868213 -3.5 L 275.3560074868213 -0.5 L 162.90261311841064 -0.5 Z" class="outline" transform="translate(-147.56272096144062 100.86152112230315) rotate(354.68414833822817)"/><text x="157.678" y="3" fill="#000" font-family="sans-serif" font-size="8" pointer-events="none" text-anchor="middle" transform="translate(-147.56272096144062 100.86152112230315) rotate(354.68414833822817)">0</text></g></g><g class="layer nodes"><g class="node" transform="translate(412.07694654617876,81.62320728886036)"><circle cx="0" cy="0" r="40" fill="#F79767" stroke="#f36924" stroke-width="2" class="outline"/><text y="5" fill="#FFF" font-family="sans-serif" font-size="10" pointer-events="none" text-anchor="middle">https://neo4j.co…</text></g><g class="node" transform="translate(583.0421187643148,144.6985064299851)"><circle cx="0" cy="0" r="40" fill="#DA7194" stroke="#cc3c6c" stroke-width="2" class="outline"/><text y="5" fill="#FFF" font-family="sans-serif" font-size="10" pointer-events="none" text-anchor="middle">card games</text></g><g class="node" transform="translate(455.94728536116145,275.89820436712586)"><circle cx="0" cy="0" r="40" fill="#DA7194" stroke="#cc3c6c" stroke-width="2" class="outline"/><text y="0" fill="#FFF" font-family="sans-serif" font-size="10" pointer-events="none" text-anchor="middle">role playing</text><text y="10" fill="#FFF" font-family="sans-serif" font-size="10" pointer-events="none" text-anchor="middle">games</text></g><g class="node" transform="translate(255.62387542337933,268.0048593313363)"><circle cx="0" cy="0" r="40" fill="#DA7194" stroke="#cc3c6c" stroke-width="2" class="outline"/><text y="5" fill="#FFF" font-family="sans-serif" font-size="10" pointer-events="none" text-anchor="middle">Switch</text></g><g class="node" transform="translate(567.3212897181309,254.04036674633227)"><circle cx="0" cy="0" r="40" fill="#DA7194" stroke="#cc3c6c" stroke-width="2" class="outline"/><text y="5" fill="#FFF" font-family="sans-serif" font-size="10" pointer-events="none" text-anchor="middle">friends</text></g><g class="node" transform="translate(175.310711344929,202.5315701476988)"><circle cx="0" cy="0" r="40" fill="#DA7194" stroke="#cc3c6c" stroke-width="2" class="outline"/><text y="5" fill="#FFF" font-family="sans-serif" font-size="10" pointer-events="none" text-anchor="middle">Nintendo</text></g><g class="node" transform="translate(622.17898260926,31.589687935486648)"><circle cx="0" cy="0" r="40" fill="#DA7194" stroke="#cc3c6c" stroke-width="2" class="outline"/><text y="5" fill="#FFF" font-family="sans-serif" font-size="10" pointer-events="none" text-anchor="middle">board games</text></g><g class="node" transform="translate(576.4654779199923,-81.28838302583381)"><circle cx="0" cy="0" r="40" fill="#DA7194" stroke="#cc3c6c" stroke-width="2" class="outline"/><text y="5" fill="#FFF" font-family="sans-serif" font-size="10" pointer-events="none" text-anchor="middle">tournaments</text></g><g class="node" transform="translate(302.609591056341,-92.3887153173473)"><circle cx="0" cy="0" r="40" fill="#DA7194" stroke="#cc3c6c" stroke-width="2" class="outline"/><text y="5" fill="#FFF" font-family="sans-serif" font-size="10" pointer-events="none" text-anchor="middle">offices</text></g><g class="node" transform="translate(450.1652583586653,-129.1187832816523)"><circle cx="0" cy="0" r="40" fill="#DA7194" stroke="#cc3c6c" stroke-width="2" class="outline"/><text y="5" fill="#FFF" font-family="sans-serif" font-size="10" pointer-events="none" text-anchor="middle">Mario Kart 8</text></g><g class="node" transform="translate(357.91807152614797,-209.42781946143077)"><circle cx="0" cy="0" r="40" fill="#DA7194" stroke="#cc3c6c" stroke-width="2" class="outline"/><text y="5" fill="#FFF" font-family="sans-serif" font-size="10" pointer-events="none" text-anchor="middle">European</text></g><g class="node" transform="translate(350.29607872689274,307.91726805472433)"><circle cx="0" cy="0" r="40" fill="#DA7194" stroke="#cc3c6c" stroke-width="2" class="outline"/><text y="5" fill="#FFF" font-family="sans-serif" font-size="10" pointer-events="none" text-anchor="middle">Neo4j</text></g><g class="node" transform="translate(173.40686702002253,70.99650557143931)"><circle cx="0" cy="0" r="40" fill="#DA7194" stroke="#cc3c6c" stroke-width="2" class="outline"/><text y="5" fill="#FFF" font-family="sans-serif" font-size="10" pointer-events="none" text-anchor="middle">8</text></g><g class="node" transform="translate(-147.56272096144062,100.86152112230315)"><circle cx="0" cy="0" r="40" fill="#F79767" stroke="#f36924" stroke-width="2" class="outline"/><text y="5" fill="#FFF" font-family="sans-serif" font-size="10" pointer-events="none" text-anchor="middle">https://en.wikip…</text></g><g class="node" transform="translate(-376.2363722791,313.4753058249074)"><circle cx="0" cy="0" r="40" fill="#DA7194" stroke="#cc3c6c" stroke-width="2" class="outline"/><text y="5" fill="#FFF" font-family="sans-serif" font-size="10" pointer-events="none" text-anchor="middle">Nintendo Switch</text></g><g class="node" transform="translate(-346.0176488862655,13.725018176483594)"><circle cx="0" cy="0" r="40" fill="#DA7194" stroke="#cc3c6c" stroke-width="2" class="outline"/><text y="5" fill="#FFF" font-family="sans-serif" font-size="10" pointer-events="none" text-anchor="middle">Joy-Con Wheel</text></g><g class="node" transform="translate(-423.06273236112315,175.40426543955127)"><circle cx="0" cy="0" r="40" fill="#DA7194" stroke="#cc3c6c" stroke-width="2" class="outline"/><text y="5" fill="#FFF" font-family="sans-serif" font-size="10" pointer-events="none" text-anchor="middle">regions</text></g><g class="node" transform="translate(-455.82681886665864,76.15994633242684)"><circle cx="0" cy="0" r="40" fill="#DA7194" stroke="#cc3c6c" stroke-width="2" class="outline"/><text y="5" fill="#FFF" font-family="sans-serif" font-size="10" pointer-events="none" text-anchor="middle">home console</text></g><g class="node" transform="translate(-284.6911510855116,374.4741394692569)"><circle cx="0" cy="0" r="40" fill="#DA7194" stroke="#cc3c6c" stroke-width="2" class="outline"/><text y="5" fill="#FFF" font-family="sans-serif" font-size="10" pointer-events="none" text-anchor="middle">device</text></g><g class="node" transform="translate(-22.282931013032027,313.9629328001105)"><circle cx="0" cy="0" r="40" fill="#DA7194" stroke="#cc3c6c" stroke-width="2" class="outline"/><text y="5" fill="#FFF" font-family="sans-serif" font-size="10" pointer-events="none" text-anchor="middle">unit</text></g><g class="node" transform="translate(-244.33126870139952,-151.69910388440152)"><circle cx="0" cy="0" r="40" fill="#DA7194" stroke="#cc3c6c" stroke-width="2" class="outline"/><text y="5" fill="#FFF" font-family="sans-serif" font-size="10" pointer-events="none" text-anchor="middle">games</text></g><g class="node" transform="translate(-69.58907023296257,408.70176964301385)"><circle cx="0" cy="0" r="40" fill="#DA7194" stroke="#cc3c6c" stroke-width="2" class="outline"/><text y="5" fill="#FFF" font-family="sans-serif" font-size="10" pointer-events="none" text-anchor="middle">steering wheel</text></g><g class="node" transform="translate(-122.10779192525106,-179.4641232597052)"><circle cx="0" cy="0" r="40" fill="#DA7194" stroke="#cc3c6c" stroke-width="2" class="outline"/><text y="5" fill="#FFF" font-family="sans-serif" font-size="10" pointer-events="none" text-anchor="middle">Mario Kart 8</text></g><g class="node" transform="translate(-179.63360115707832,374.8497367184015)"><circle cx="0" cy="0" r="40" fill="#D9C8AE" stroke="#c0a378" stroke-width="2" class="outline"/><text y="5" fill="#604A0E" font-family="sans-serif" font-size="10" pointer-events="none" text-anchor="middle">March 3, 2017</text></g><g class="node" transform="translate(-352.2320097177071,-91.02015631035235)"><circle cx="0" cy="0" r="40" fill="#D9C8AE" stroke="#c0a378" stroke-width="2" class="outline"/><text y="0" fill="#604A0E" font-family="sans-serif" font-size="10" pointer-events="none" text-anchor="middle">October 20,</text><text y="10" fill="#604A0E" font-family="sans-serif" font-size="10" pointer-events="none" text-anchor="middle">2016</text></g><g class="node" transform="translate(76.61791563348206,252.17449341540174)"><circle cx="0" cy="0" r="40" fill="#DA7194" stroke="#cc3c6c" stroke-width="2" class="outline"/><text y="5" fill="#FFF" font-family="sans-serif" font-size="10" pointer-events="none" text-anchor="middle">3</text></g><g class="node" transform="translate(-54.09519533058483,-117.23206002137586)"><circle cx="0" cy="0" r="40" fill="#DA7194" stroke="#cc3c6c" stroke-width="2" class="outline"/><text y="5" fill="#FFF" font-family="sans-serif" font-size="10" pointer-events="none" text-anchor="middle">2017</text></g><g class="node" transform="translate(88.90479284011849,-119.05680931626264)"><circle cx="0" cy="0" r="40" fill="#DA7194" stroke="#cc3c6c" stroke-width="2" class="outline"/><text y="5" fill="#FFF" font-family="sans-serif" font-size="10" pointer-events="none" text-anchor="middle">20</text></g><g class="node" transform="translate(183.9635137146741,-57.415534504632916)"><circle cx="0" cy="0" r="40" fill="#DA7194" stroke="#cc3c6c" stroke-width="2" class="outline"/><text y="5" fill="#FFF" font-family="sans-serif" font-size="10" pointer-events="none" text-anchor="middle">2016</text></g></g></svg>