<svg xmlns="http://www.w3.org/2000/svg" width="885.025" height="521.738" viewBox="-361.392 -241.411 885.025 521.738"><title>Neo4j Graph Visualization</title><desc>Created using Neo4j (http://www.neo4j.com/)</desc><g class="layer relationships"><g class="relationship"><path fill="#A5ABB6" stroke="none" d="M 40 0.5 L 155.77727577492618 0.5 L 155.77727577492618 -0.5 L 40 -0.5 Z M 200.89446327492618 0.5 L 316.67173904985236 0.5 L 316.67173904985236 3.5 L 323.67173904985236 0 L 316.67173904985236 -3.5 L 316.67173904985236 -0.5 L 200.89446327492618 -0.5 Z" class="outline" transform="translate(-317.3919907164187 69.34600060039975) rotate(351.21991612085424)"/><text x="178.336" y="3" fill="#000" font-family="sans-serif" font-size="8" pointer-events="none" text-anchor="middle" transform="translate(-317.3919907164187 69.34600060039975) rotate(351.21991612085424)">FOLLOWS</text></g><g class="relationship"><path fill="#A5ABB6" stroke="none" d="M 40 0.5 L 101.90650165958789 0.5 L 101.90650165958789 -0.5 L 40 -0.5 Z M 147.0236891595879 0.5 L 208.93019081917578 0.5 L 208.93019081917578 3.5 L 215.93019081917578 0 L 208.93019081917578 -3.5 L 208.93019081917578 -0.5 L 147.0236891595879 -0.5 Z" class="outline" transform="translate(-317.3919907164187 69.34600060039975) rotate(318.1804639693182)"/><text x="124.465" y="3" fill="#000" font-family="sans-serif" font-size="8" pointer-events="none" text-anchor="middle" transform="translate(-317.3919907164187 69.34600060039975) rotate(318.1804639693182)">FOLLOWS</text></g><g class="relationship"><path fill="#A5ABB6" stroke="none" d="M 40 0.5 L 83.6692950031735 0.5 L 83.6692950031735 -0.5 L 40 -0.5 Z M 119.8919512531735 0.5 L 163.561246256347 0.5 L 163.561246256347 3.5 L 170.561246256347 0 L 163.561246256347 -3.5 L 163.561246256347 -0.5 L 119.8919512531735 -0.5 Z" class="outline" transform="translate(-317.3919907164187 69.34600060039975) rotate(402.8860427437397)"/><text x="101.781" y="3" fill="#000" font-family="sans-serif" font-size="8" pointer-events="none" text-anchor="middle" transform="translate(-317.3919907164187 69.34600060039975) rotate(402.8860427437397)">KNOWS</text></g><g class="relationship"><path fill="#A5ABB6" stroke="none" d="M 40 0.5 L 78.85066442128728 0.5 L 78.85066442128728 -0.5 L 40 -0.5 Z M 123.96785192128728 0.5 L 162.81851634257455 0.5 L 162.81851634257455 3.5 L 169.81851634257455 0 L 162.81851634257455 -3.5 L 162.81851634257455 -0.5 L 123.96785192128728 -0.5 Z" class="outline" transform="translate(42.018061025883014 13.834303723616133) rotate(371.9054849203289)"/><text x="101.409" y="3" fill="#000" font-family="sans-serif" font-size="8" pointer-events="none" text-anchor="middle" transform="translate(42.018061025883014 13.834303723616133) rotate(371.9054849203289)">FOLLOWS</text></g><g class="relationship"><path fill="#A5ABB6" stroke="none" d="M 38.50762352901147,10.835724717245364 L 38.766442574113995,9.869798890956295 A 325.71673989737104 325.71673989737104 0 0 0 98.25720203816181,20.021986817287825 L 98.18102868539549,21.019081406746807 A 326.71673989737104 326.71673989737104 0 0 1 38.50762352901147,10.835724717245364 Z M 143.33022686080494,21.339422395265956 L 143.26820956503087,20.34134732042196 A 325.71673989737104 325.71673989737104 0 0 0 202.89703527416214,11.034332447178073 L 202.16177465662932,8.125829082162781 L 209.80608656211993,9.803474900437408 L 203.87738276420586,14.91233693386513 L 203.14212214667305,12.003833568849839 A 326.71673989737104 326.71673989737104 0 0 1 143.33022686080494,21.339422395265956" class="outline" transform="translate(42.018061025883014 13.834303723616133) rotate(326.80526312745434)"/><text x="120.754" y="24.46" fill="#000" font-family="sans-serif" font-size="8" pointer-events="none" text-anchor="middle" transform="translate(42.018061025883014 13.834303723616133) rotate(326.80526312745434)">FOLLOWS</text></g><g class="relationship"><path fill="#A5ABB6" stroke="none" d="M 40 0.5 L 60.13545022001452 0.5 L 60.13545022001452 -0.5 L 40 -0.5 Z M 105.25263772001452 0.5 L 125.38808794002904 0.5 L 125.38808794002904 3.5 L 132.38808794002904 0 L 125.38808794002904 -3.5 L 125.38808794002904 -0.5 L 105.25263772001452 -0.5 Z" class="outline" transform="translate(42.018061025883014 13.834303723616133) rotate(434.1393486839747)"/><text x="82.694" y="3" fill="#000" font-family="sans-serif" font-size="8" pointer-events="none" text-anchor="middle" transform="translate(42.018061025883014 13.834303723616133) rotate(434.1393486839747)">FOLLOWS</text></g><g class="relationship"><path fill="#A5ABB6" stroke="none" d="M 40 0.5 L 120.29122567403135 0.5 L 120.29122567403135 -0.5 L 40 -0.5 Z M 156.51388192403135 0.5 L 236.8051075980627 0.5 L 236.8051075980627 3.5 L 243.8051075980627 0 L 236.8051075980627 -3.5 L 236.8051075980627 -0.5 L 156.51388192403135 -0.5 Z" class="outline" transform="translate(-126.66035125881919 -101.30482501306159) rotate(340.2062818648508)"/><text x="138.403" y="3" fill="#000" font-family="sans-serif" font-size="8" pointer-events="none" text-anchor="middle" transform="translate(-126.66035125881919 -101.30482501306159) rotate(340.2062818648508)">KNOWS</text></g><g class="relationship"><path fill="#A5ABB6" stroke="none" d="M 40 0.5 L 105.58398127387711 0.5 L 105.58398127387711 -0.5 L 40 -0.5 Z M 141.8066375238771 0.5 L 207.39061879775423 0.5 L 207.39061879775423 3.5 L 214.39061879775423 0 L 207.39061879775423 -3.5 L 207.39061879775423 -0.5 L 141.8066375238771 -0.5 Z" class="outline" transform="translate(89.13149527727279 179.65944408737147) rotate(532.550480426817)"/><text x="123.695" y="3" fill="#000" font-family="sans-serif" font-size="8" pointer-events="none" text-anchor="middle" transform="translate(89.13149527727279 179.65944408737147) rotate(532.550480426817) rotate(180 123.69530939887711 0)">KNOWS</text></g><g class="relationship"><path fill="#A5ABB6" stroke="none" d="M 40 0.5 L 100.49434468702232 0.5 L 100.49434468702232 -0.5 L 40 -0.5 Z M 145.6115321870223 0.5 L 206.10587687404464 0.5 L 206.10587687404464 3.5 L 213.10587687404464 0 L 206.10587687404464 -3.5 L 206.10587687404464 -0.5 L 145.6115321870223 -0.5 Z" class="outline" transform="translate(247.32322176845386 57.11941401187086) rotate(383.3884364460323)"/><text x="123.053" y="3" fill="#000" font-family="sans-serif" font-size="8" pointer-events="none" text-anchor="middle" transform="translate(247.32322176845386 57.11941401187086) rotate(383.3884364460323)">FOLLOWS</text></g><g class="relationship"><path fill="#A5ABB6" stroke="none" d="M 40 0.5 L 96.48044026096763 0.5 L 96.48044026096763 -0.5 L 40 -0.5 Z M 132.7030965109676 0.5 L 189.18353677193525 0.5 L 189.18353677193525 3.5 L 196.18353677193525 0 L 189.18353677193525 -3.5 L 189.18353677193525 -0.5 L 132.7030965109676 -0.5 Z" class="outline" transform="translate(247.32322176845386 57.11941401187086) rotate(309.381704712933)"/><text x="114.592" y="3" fill="#000" font-family="sans-serif" font-size="8" pointer-events="none" text-anchor="middle" transform="translate(247.32322176845386 57.11941401187086) rotate(309.381704712933)">KNOWS</text></g><g class="relationship"><path fill="#A5ABB6" stroke="none" d="M 40 0.5 L 68.09025983272052 0.5 L 68.09025983272052 -0.5 L 40 -0.5 Z M 104.31291608272052 0.5 L 132.40317591544104 0.5 L 132.40317591544104 3.5 L 139.40317591544104 0 L 132.40317591544104 -3.5 L 132.40317591544104 -0.5 L 104.31291608272052 -0.5 Z" class="outline" transform="translate(247.32322176845386 57.11941401187086) rotate(270.8672297863444)"/><text x="86.202" y="3" fill="#000" font-family="sans-serif" font-size="8" pointer-events="none" text-anchor="middle" transform="translate(247.32322176845386 57.11941401187086) rotate(270.8672297863444)">KNOWS</text></g><g class="relationship"><path fill="#A5ABB6" stroke="none" d="M 40 0.5 L 77.67768383335144 0.5 L 77.67768383335144 -0.5 L 40 -0.5 Z M 113.90034008335144 0.5 L 151.57802391670288 0.5 L 151.57802391670288 3.5 L 158.57802391670288 0 L 151.57802391670288 -3.5 L 151.57802391670288 -0.5 L 113.90034008335144 -0.5 Z" class="outline" transform="translate(247.32322176845386 57.11941401187086) rotate(345.94437313360675)"/><text x="95.789" y="3" fill="#000" font-family="sans-serif" font-size="8" pointer-events="none" text-anchor="middle" transform="translate(247.32322176845386 57.11941401187086) rotate(345.94437313360675)">KNOWS</text></g><g class="relationship"><path fill="#A5ABB6" stroke="none" d="M 40 0.5 L 87.48013149095696 0.5 L 87.48013149095696 -0.5 L 40 -0.5 Z M 123.70278774095696 0.5 L 171.18291923191393 0.5 L 171.18291923191393 3.5 L 178.18291923191393 0 L 171.18291923191393 -3.5 L 171.18291923191393 -0.5 L 123.70278774095696 -0.5 Z" class="outline" transform="translate(247.32322176845386 57.11941401187086) rotate(415.22143940530384)"/><text x="105.591" y="3" fill="#000" font-family="sans-serif" font-size="8" pointer-events="none" text-anchor="middle" transform="translate(247.32322176845386 57.11941401187086) rotate(415.22143940530384)">KNOWS</text></g><g class="relationship"><path fill="#A5ABB6" stroke="none" d="M 38.50762352901147,10.835724717245364 L 38.766442574113995,9.869798890956295 A 325.71673989737104 325.71673989737104 0 0 0 98.25720203816181,20.021986817287825 L 98.18102868539549,21.019081406746807 A 326.71673989737104 326.71673989737104 0 0 1 38.50762352901147,10.835724717245364 Z M 143.33022686080494,21.339422395265956 L 143.26820956503087,20.34134732042196 A 325.71673989737104 325.71673989737104 0 0 0 202.89703527416214,11.034332447178073 L 202.16177465662932,8.125829082162781 L 209.80608656211993,9.803474900437408 L 203.87738276420586,14.91233693386513 L 203.14212214667305,12.003833568849839 A 326.71673989737104 326.71673989737104 0 0 1 143.33022686080494,21.339422395265956" class="outline" transform="translate(250.0385672725855 -122.2632117558993) rotate(506.80526312745434)"/><text x="120.754" y="24.46" fill="#000" font-family="sans-serif" font-size="8" pointer-events="none" text-anchor="middle" transform="translate(250.0385672725855 -122.2632117558993) rotate(506.80526312745434) rotate(180 120.75363498987141 21.460116879707925)">FOLLOWS</text></g><g class="relationship"><path fill="#A5ABB6" stroke="none" d="M 40 0.5 L 118.07603768691487 0.5 L 118.07603768691487 -0.5 L 40 -0.5 Z M 163.19322518691487 0.5 L 241.26926287382975 0.5 L 241.26926287382975 3.5 L 248.26926287382975 0 L 241.26926287382975 -3.5 L 241.26926287382975 -0.5 L 163.19322518691487 -0.5 Z" class="outline" transform="translate(89.13149527727279 179.65944408737147) rotate(371.3368979567921)"/><text x="140.635" y="3" fill="#000" font-family="sans-serif" font-size="8" pointer-events="none" text-anchor="middle" transform="translate(89.13149527727279 179.65944408737147) rotate(371.3368979567921)">FOLLOWS</text></g><g class="relationship"><path fill="#A5ABB6" stroke="none" d="M 40 0.5 L 90.45223466323002 0.5 L 90.45223466323002 -0.5 L 40 -0.5 Z M 135.56942216323 0.5 L 186.02165682646003 0.5 L 186.02165682646003 3.5 L 193.02165682646003 0 L 186.02165682646003 -3.5 L 186.02165682646003 -0.5 L 135.56942216323 -0.5 Z" class="outline" transform="translate(140.37695523361663 -197.4110997302351) rotate(474.9673632580806)"/><text x="113.011" y="3" fill="#000" font-family="sans-serif" font-size="8" pointer-events="none" text-anchor="middle" transform="translate(140.37695523361663 -197.4110997302351) rotate(474.9673632580806) rotate(180 113.01082841323002 0)">FOLLOWS</text></g></g><g class="layer nodes"><g class="node" transform="translate(-317.3919907164187,69.34600060039975)"><circle cx="0" cy="0" r="40" fill="#DA7194" stroke="#cc3c6c" stroke-width="2" class="outline"/><text y="5" fill="#FFF" font-family="sans-serif" font-size="10" pointer-events="none" text-anchor="middle">Alicia</text></g><g class="node" transform="translate(42.018061025883014,13.834303723616133)"><circle cx="0" cy="0" r="40" fill="#FFC454" stroke="#d7a013" stroke-width="2" class="outline"/><text y="5" fill="#604A0E" font-family="sans-serif" font-size="10" pointer-events="none" text-anchor="middle">Joe</text></g><g class="node" transform="translate(-126.66035125881919,-101.30482501306159)"><circle cx="0" cy="0" r="40" fill="#569480" stroke="#447666" stroke-width="2" class="outline"/><text y="5" fill="#FFF" font-family="sans-serif" font-size="10" pointer-events="none" text-anchor="middle">Jonny</text></g><g class="node" transform="translate(-163.1119335528033,212.64185673942967)"><circle cx="0" cy="0" r="40" fill="#DA7194" stroke="#cc3c6c" stroke-width="2" class="outline"/><text y="5" fill="#FFF" font-family="sans-serif" font-size="10" pointer-events="none" text-anchor="middle">Jake</text></g><g class="node" transform="translate(247.32322176845386,57.11941401187086)"><circle cx="0" cy="0" r="40" fill="#4C8EDA" stroke="#2870c2" stroke-width="2" class="outline"/><text y="5" fill="#FFF" font-family="sans-serif" font-size="10" pointer-events="none" text-anchor="middle">Zhen</text></g><g class="node" transform="translate(250.0385672725855,-122.2632117558993)"><circle cx="0" cy="0" r="40" fill="#4C8EDA" stroke="#2870c2" stroke-width="2" class="outline"/><text y="5" fill="#FFF" font-family="sans-serif" font-size="10" pointer-events="none" text-anchor="middle">Praveena</text></g><g class="node" transform="translate(89.13149527727279,179.65944408737147)"><circle cx="0" cy="0" r="40" fill="#ECB5C9" stroke="#da7298" stroke-width="2" class="outline"/><text y="5" fill="#604A0E" font-family="sans-serif" font-size="10" pointer-events="none" text-anchor="middle">Mark</text></g><g class="node" transform="translate(140.37695523361663,-197.4110997302351)"><circle cx="0" cy="0" r="40" fill="#569480" stroke="#447666" stroke-width="2" class="outline"/><text y="5" fill="#FFF" font-family="sans-serif" font-size="10" pointer-events="none" text-anchor="middle">Anthony</text></g><g class="node" transform="translate(479.6325935768058,157.5929960032976)"><circle cx="0" cy="0" r="40" fill="#DA7194" stroke="#cc3c6c" stroke-width="2" class="outline"/><text y="5" fill="#FFF" font-family="sans-serif" font-size="10" pointer-events="none" text-anchor="middle">John</text></g><g class="node" transform="translate(397.17783479136017,-125.43539419063882)"><circle cx="0" cy="0" r="40" fill="#4C8EDA" stroke="#2870c2" stroke-width="2" class="outline"/><text y="5" fill="#FFF" font-family="sans-serif" font-size="10" pointer-events="none" text-anchor="middle">Martin</text></g><g class="node" transform="translate(439.95589785479774,8.89199767555509)"><circle cx="0" cy="0" r="40" fill="#ECB5C9" stroke="#da7298" stroke-width="2" class="outline"/><text y="5" fill="#604A0E" font-family="sans-serif" font-size="10" pointer-events="none" text-anchor="middle">Lju</text></g><g class="node" transform="translate(371.77612546137664,236.32672694011038)"><circle cx="0" cy="0" r="40" fill="#FFC454" stroke="#d7a013" stroke-width="2" class="outline"/><text y="5" fill="#604A0E" font-family="sans-serif" font-size="10" pointer-events="none" text-anchor="middle">Stefan</text></g></g></svg>