<svg xmlns="http://www.w3.org/2000/svg" width="449.936" height="190.259" viewBox="-155.62 -7.55 449.936 190.259"><title>Neo4j Graph Visualization</title><desc>Created using Neo4j (http://www.neo4j.com/)</desc><g class="layer relationships"><g class="relationship"><path fill="#A5ABB6" stroke="none" d="M 40 0.5 L 63.68579125689271 0.5 L 63.68579125689271 -0.5 L 40 -0.5 Z M 108.80297875689271 0.5 L 132.48877001378543 0.5 L 132.48877001378543 3.5 L 139.48877001378543 0 L 132.48877001378543 -3.5 L 132.48877001378543 -0.5 L 108.80297875689271 -0.5 Z" class="outline" transform="translate(102.80589208912237 138.70895722097663) rotate(325.2690778107727)"/><text x="86.244" y="3" fill="#000" font-family="sans-serif" font-size="8" pointer-events="none" text-anchor="middle" transform="translate(102.80589208912237 138.70895722097663) rotate(325.2690778107727)">FOLLOWS</text></g><g class="relationship"><path fill="#A5ABB6" stroke="none" d="M 40 0.5 L 89.14660488184967 0.5 L 89.14660488184967 -0.5 L 40 -0.5 Z M 134.26379238184967 0.5 L 183.41039726369934 0.5 L 183.41039726369934 3.5 L 190.41039726369934 0 L 183.41039726369934 -3.5 L 183.41039726369934 -0.5 L 134.26379238184967 -0.5 Z" class="outline" transform="translate(102.80589208912237 138.70895722097663) rotate(201.46743181407516)"/><text x="111.705" y="3" fill="#000" font-family="sans-serif" font-size="8" pointer-events="none" text-anchor="middle" transform="translate(102.80589208912237 138.70895722097663) rotate(201.46743181407516) rotate(180 111.70519863184967 0)">FOLLOWS</text></g></g><g class="layer nodes"><g class="node" transform="translate(102.80589208912237,138.70895722097663)"><circle cx="0" cy="0" r="40" fill="#FFC454" stroke="#d7a013" stroke-width="2" class="outline"/><text y="5" fill="#604A0E" font-family="sans-serif" font-size="10" pointer-events="none" text-anchor="middle">Joe</text></g><g class="node" transform="translate(250.3163477533282,36.450050367832915)"><circle cx="0" cy="0" r="40" fill="#ECB5C9" stroke="#da7298" stroke-width="2" class="outline"/><text y="5" fill="#604A0E" font-family="sans-serif" font-size="10" pointer-events="none" text-anchor="middle">Mark</text></g><g class="node" transform="translate(-111.61995553126538,54.385134729974666)"><circle cx="0" cy="0" r="40" fill="#4C8EDA" stroke="#2870c2" stroke-width="2" class="outline"/><text y="5" fill="#FFF" font-family="sans-serif" font-size="10" pointer-events="none" text-anchor="middle">Zhen</text></g></g></svg>