<svg xmlns="http://www.w3.org/2000/svg" width="591.248" height="307.355" viewBox="-196.499 -82.826 591.248 307.355"><title>Neo4j Graph Visualization</title><desc>Created using Neo4j (http://www.neo4j.com/)</desc><g class="layer relationships"><g class="relationship"><path fill="#A5ABB6" stroke="none" d="M 40 0.5 L 53.19682001344829 0.5 L 53.19682001344829 -0.5 L 40 -0.5 Z M 98.31400751344829 0.5 L 111.51082752689658 0.5 L 111.51082752689658 3.5 L 118.51082752689658 0 L 111.51082752689658 -3.5 L 111.51082752689658 -0.5 L 98.31400751344829 -0.5 Z" class="outline" transform="translate(58.94144983262643 180.52903682294482) rotate(321.23403882533705)"/><text x="75.755" y="3" fill="#000" font-family="sans-serif" font-size="8" pointer-events="none" text-anchor="middle" transform="translate(58.94144983262643 180.52903682294482) rotate(321.23403882533705)">FOLLOWS</text></g><g class="relationship"><path fill="#A5ABB6" stroke="none" d="M 40 0.5 L 84.20993832245792 0.5 L 84.20993832245792 -0.5 L 40 -0.5 Z M 120.43259457245792 0.5 L 164.64253289491583 0.5 L 164.64253289491583 3.5 L 171.64253289491583 0 L 164.64253289491583 -3.5 L 164.64253289491583 -0.5 L 120.43259457245792 -0.5 Z" class="outline" transform="translate(58.94144983262643 180.52903682294482) rotate(182.5030102774782)"/><text x="102.321" y="3" fill="#000" font-family="sans-serif" font-size="8" pointer-events="none" text-anchor="middle" transform="translate(58.94144983262643 180.52903682294482) rotate(182.5030102774782) rotate(180 102.32126644745792 0)">KNOWS</text></g><g class="relationship"><path fill="#A5ABB6" stroke="none" d="M 40 0.5 L 71.44262018207787 0.5 L 71.44262018207787 -0.5 L 40 -0.5 Z M 107.66527643207787 0.5 L 139.10789661415575 0.5 L 139.10789661415575 3.5 L 146.10789661415575 0 L 139.10789661415575 -3.5 L 139.10789661415575 -0.5 L 107.66527643207787 -0.5 Z" class="outline" transform="translate(182.53394082269995 81.27895564348105) rotate(334.6699726585357)"/><text x="89.554" y="3" fill="#000" font-family="sans-serif" font-size="8" pointer-events="none" text-anchor="middle" transform="translate(182.53394082269995 81.27895564348105) rotate(334.6699726585357)">KNOWS</text></g><g class="relationship"><path fill="#A5ABB6" stroke="none" d="M 40 0.5 L 58.243134536427874 0.5 L 58.243134536427874 -0.5 L 40 -0.5 Z M 94.46579078642787 0.5 L 112.70892532285575 0.5 L 112.70892532285575 3.5 L 119.70892532285575 0 L 112.70892532285575 -3.5 L 112.70892532285575 -0.5 L 94.46579078642787 -0.5 Z" class="outline" transform="translate(-67.02079524144209 36.377389844730104) rotate(482.3583885581079)"/><text x="76.354" y="3" fill="#000" font-family="sans-serif" font-size="8" pointer-events="none" text-anchor="middle" transform="translate(-67.02079524144209 36.377389844730104) rotate(482.3583885581079) rotate(180 76.35446266142787 0)">KNOWS</text></g><g class="relationship"><path fill="#A5ABB6" stroke="none" d="M 40 0.5 L 97.88877136188408 0.5 L 97.88877136188408 -0.5 L 40 -0.5 Z M 143.0059588618841 0.5 L 200.89473022376816 0.5 L 200.89473022376816 3.5 L 207.89473022376816 0 L 200.89473022376816 -3.5 L 200.89473022376816 -0.5 L 143.0059588618841 -0.5 Z" class="outline" transform="translate(-67.02079524144209 36.377389844730104) rotate(342.33991414335446)"/><text x="120.447" y="3" fill="#000" font-family="sans-serif" font-size="8" pointer-events="none" text-anchor="middle" transform="translate(-67.02079524144209 36.377389844730104) rotate(342.33991414335446)">FOLLOWS</text></g></g><g class="layer nodes"><g class="node" transform="translate(58.94144983262643,180.52903682294482)"><circle cx="0" cy="0" r="40" fill="#DA7194" stroke="#cc3c6c" stroke-width="2" class="outline"/><text y="5" fill="#FFF" font-family="sans-serif" font-size="10" pointer-events="none" text-anchor="middle">Alicia</text></g><g class="node" transform="translate(182.53394082269995,81.27895564348105)"><circle cx="0" cy="0" r="40" fill="#569480" stroke="#447666" stroke-width="2" class="outline"/><text y="5" fill="#FFF" font-family="sans-serif" font-size="10" pointer-events="none" text-anchor="middle">Jonny</text></g><g class="node" transform="translate(-152.49916094773954,171.2862102530414)"><circle cx="0" cy="0" r="40" fill="#DA7194" stroke="#cc3c6c" stroke-width="2" class="outline"/><text y="5" fill="#FFF" font-family="sans-serif" font-size="10" pointer-events="none" text-anchor="middle">Jake</text></g><g class="node" transform="translate(350.749137189924,1.6561141136691617)"><circle cx="0" cy="0" r="40" fill="#569480" stroke="#447666" stroke-width="2" class="outline"/><text y="5" fill="#FFF" font-family="sans-serif" font-size="10" pointer-events="none" text-anchor="middle">Anthony</text></g><g class="node" transform="translate(-67.02079524144209,36.377389844730104)"><circle cx="0" cy="0" r="40" fill="#ECB5C9" stroke="#da7298" stroke-width="2" class="outline"/><text y="5" fill="#604A0E" font-family="sans-serif" font-size="10" pointer-events="none" text-anchor="middle">Mark</text></g><g class="node" transform="translate(169.19141232771423,-38.82626876321676)"><circle cx="0" cy="0" r="40" fill="#FFC454" stroke="#d7a013" stroke-width="2" class="outline"/><text y="5" fill="#604A0E" font-family="sans-serif" font-size="10" pointer-events="none" text-anchor="middle">Stefan</text></g></g></svg>