<svg xmlns="http://www.w3.org/2000/svg" width="212.145" height="260.439" viewBox="56.97 -43.405 212.145 260.439"><title>Neo4j Graph Visualization</title><desc>Created using Neo4j (http://www.neo4j.com/)</desc><g class="layer relationships"><g class="relationship"><path fill="#A5ABB6" stroke="none" d="M 40 0.5 L 50.44896743852222 0.5 L 50.44896743852222 -0.5 L 40 -0.5 Z M 86.67162368852222 0.5 L 97.12059112704443 0.5 L 97.12059112704443 3.5 L 104.12059112704443 0 L 97.12059112704443 -3.5 L 97.12059112704443 -0.5 L 86.67162368852222 -0.5 Z" class="outline" transform="translate(100.97038271330918 99.83069143957691) rotate(390.5260716258393)"/><text x="68.56" y="3" fill="#000" font-family="sans-serif" font-size="8" pointer-events="none" text-anchor="middle" transform="translate(100.97038271330918 99.83069143957691) rotate(390.5260716258393)">KNOWS</text></g><g class="relationship"><path fill="#A5ABB6" stroke="none" d="M 40 0.5 L 50.46407730831913 0.5 L 50.46407730831913 -0.5 L 40 -0.5 Z M 86.68673355831913 0.5 L 97.15081086663827 0.5 L 97.15081086663827 3.5 L 104.15081086663827 0 L 97.15081086663827 -3.5 L 97.15081086663827 -0.5 L 86.68673355831913 -0.5 Z" class="outline" transform="translate(100.97038271330918 99.83069143957691) rotate(316.4952692505211)"/><text x="68.575" y="3" fill="#000" font-family="sans-serif" font-size="8" pointer-events="none" text-anchor="middle" transform="translate(100.97038271330918 99.83069143957691) rotate(316.4952692505211)">KNOWS</text></g></g><g class="layer nodes"><g class="node" transform="translate(225.11558941966595,173.0339184083702)"><circle cx="0" cy="0" r="40" fill="#4C8EDA" stroke="#2870c2" stroke-width="2" class="outline"/><text y="5" fill="#FFF" font-family="sans-serif" font-size="10" pointer-events="none" text-anchor="middle">Praveena</text></g><g class="node" transform="translate(100.97038271330918,99.83069143957691)"><circle cx="0" cy="0" r="40" fill="#4C8EDA" stroke="#2870c2" stroke-width="2" class="outline"/><text y="5" fill="#FFF" font-family="sans-serif" font-size="10" pointer-events="none" text-anchor="middle">Zhen</text></g><g class="node" transform="translate(205.5254932398701,0.595188033346588)"><circle cx="0" cy="0" r="40" fill="#4C8EDA" stroke="#2870c2" stroke-width="2" class="outline"/><text y="5" fill="#FFF" font-family="sans-serif" font-size="10" pointer-events="none" text-anchor="middle">Martin</text></g></g></svg>