<svg xmlns="http://www.w3.org/2000/svg" width="838.866" height="449.847" viewBox="-623.234 -254.514 838.866 449.847"><title>Neo4j Graph Visualization</title><desc>Created using Neo4j (http://www.neo4j.com/)</desc><g class="layer relationships"><g class="relationship"><path fill="#A5ABB6" stroke="none" d="M 40 0.5 L 54.637331491281486 0.5 L 54.637331491281486 -0.5 L 40 -0.5 Z M 99.75451899128149 0.5 L 114.39185048256297 0.5 L 114.39185048256297 3.5 L 121.39185048256297 0 L 114.39185048256297 -3.5 L 114.39185048256297 -0.5 L 99.75451899128149 -0.5 Z" class="outline" transform="translate(-579.233958527067 2.6687914275837272) rotate(427.0928674445355)"/><text x="77.196" y="3" fill="#000" font-family="sans-serif" font-size="8" pointer-events="none" text-anchor="middle" transform="translate(-579.233958527067 2.6687914275837272) rotate(427.0928674445355)">FOLLOWS</text></g><g class="relationship"><path fill="#A5ABB6" stroke="none" d="M 40 0.5 L 127.02696901777358 0.5 L 127.02696901777358 -0.5 L 40 -0.5 Z M 172.14415651777358 0.5 L 259.17112553554716 0.5 L 259.17112553554716 3.5 L 266.17112553554716 0 L 259.17112553554716 -3.5 L 259.17112553554716 -0.5 L 172.14415651777358 -0.5 Z" class="outline" transform="translate(-579.233958527067 2.6687914275837272) rotate(348.8083473215095)"/><text x="149.586" y="3" fill="#000" font-family="sans-serif" font-size="8" pointer-events="none" text-anchor="middle" transform="translate(-579.233958527067 2.6687914275837272) rotate(348.8083473215095)">FOLLOWS</text></g><g class="relationship"><path fill="#A5ABB6" stroke="none" d="M 40 0.5 L 124.20923519691775 0.5 L 124.20923519691775 -0.5 L 40 -0.5 Z M 160.43189144691775 0.5 L 244.6411266438355 0.5 L 244.6411266438355 3.5 L 251.6411266438355 0 L 244.6411266438355 -3.5 L 244.6411266438355 -0.5 L 160.43189144691775 -0.5 Z" class="outline" transform="translate(-579.233958527067 2.6687914275837272) rotate(313.0317062109308)"/><text x="142.321" y="3" fill="#000" font-family="sans-serif" font-size="8" pointer-events="none" text-anchor="middle" transform="translate(-579.233958527067 2.6687914275837272) rotate(313.0317062109308)">KNOWS</text></g><g class="relationship"><path fill="#A5ABB6" stroke="none" d="M 40 0.5 L 81.34804667276276 0.5 L 81.34804667276276 -0.5 L 40 -0.5 Z M 117.57070292276276 0.5 L 158.91874959552553 0.5 L 158.91874959552553 3.5 L 165.91874959552553 0 L 158.91874959552553 -3.5 L 158.91874959552553 -0.5 L 117.57070292276276 -0.5 Z" class="outline" transform="translate(-516.414016987901 151.3327895818165) rotate(332.4930849493592)"/><text x="99.459" y="3" fill="#000" font-family="sans-serif" font-size="8" pointer-events="none" text-anchor="middle" transform="translate(-516.414016987901 151.3327895818165) rotate(332.4930849493592)">KNOWS</text></g><g class="relationship"><path fill="#A5ABB6" stroke="none" d="M 40 0.5 L 108.68104665591883 0.5 L 108.68104665591883 -0.5 L 40 -0.5 Z M 153.79823415591883 0.5 L 222.47928081183767 0.5 L 222.47928081183767 3.5 L 229.47928081183767 0 L 222.47928081183767 -3.5 L 222.47928081183767 -0.5 L 153.79823415591883 -0.5 Z" class="outline" transform="translate(-278.88515377441587 -56.75640184393751) rotate(360.03043514538695)"/><text x="131.24" y="3" fill="#000" font-family="sans-serif" font-size="8" pointer-events="none" text-anchor="middle" transform="translate(-278.88515377441587 -56.75640184393751) rotate(360.03043514538695)">FOLLOWS</text></g><g class="relationship"><path fill="#A5ABB6" stroke="none" d="M 40 0.5 L 65.97380955837467 0.5 L 65.97380955837467 -0.5 L 40 -0.5 Z M 111.09099705837467 0.5 L 137.06480661674934 0.5 L 137.06480661674934 3.5 L 144.06480661674934 0 L 137.06480661674934 -3.5 L 137.06480661674934 -0.5 L 111.09099705837467 -0.5 Z" class="outline" transform="translate(-278.88515377441587 -56.75640184393751) rotate(320.26166710559437)"/><text x="88.532" y="3" fill="#000" font-family="sans-serif" font-size="8" pointer-events="none" text-anchor="middle" transform="translate(-278.88515377441587 -56.75640184393751) rotate(320.26166710559437)">FOLLOWS</text></g><g class="relationship"><path fill="#A5ABB6" stroke="none" d="M 40 0.5 L 62.42489990470911 0.5 L 62.42489990470911 -0.5 L 40 -0.5 Z M 107.54208740470911 0.5 L 129.96698730941822 0.5 L 129.96698730941822 3.5 L 136.96698730941822 0 L 129.96698730941822 -3.5 L 129.96698730941822 -0.5 L 107.54208740470911 -0.5 Z" class="outline" transform="translate(-278.88515377441587 -56.75640184393751) rotate(387.7795791531579)"/><text x="84.983" y="3" fill="#000" font-family="sans-serif" font-size="8" pointer-events="none" text-anchor="middle" transform="translate(-278.88515377441587 -56.75640184393751) rotate(387.7795791531579)">FOLLOWS</text></g><g class="relationship"><path fill="#A5ABB6" stroke="none" d="M 40 0.5 L 68.30393576321184 0.5 L 68.30393576321184 -0.5 L 40 -0.5 Z M 113.42112326321184 0.5 L 141.72505902642368 0.5 L 141.72505902642368 3.5 L 148.72505902642368 0 L 141.72505902642368 -3.5 L 141.72505902642368 -0.5 L 113.42112326321184 -0.5 Z" class="outline" transform="translate(-137.34446675114896 -174.42579868034068) rotate(364.60132403384847)"/><text x="90.863" y="3" fill="#000" font-family="sans-serif" font-size="8" pointer-events="none" text-anchor="middle" transform="translate(-137.34446675114896 -174.42579868034068) rotate(364.60132403384847)">FOLLOWS</text></g><g class="relationship"><path fill="#A5ABB6" stroke="none" d="M 40 0.5 L 72.4098510773758 0.5 L 72.4098510773758 -0.5 L 40 -0.5 Z M 117.5270385773758 0.5 L 149.9368896547516 0.5 L 149.9368896547516 3.5 L 156.9368896547516 0 L 149.9368896547516 -3.5 L 149.9368896547516 -0.5 L 117.5270385773758 -0.5 Z" class="outline" transform="translate(-122.31411710587264 25.72283841632118) rotate(382.2651160385533)"/><text x="94.968" y="3" fill="#000" font-family="sans-serif" font-size="8" pointer-events="none" text-anchor="middle" transform="translate(-122.31411710587264 25.72283841632118) rotate(382.2651160385533)">FOLLOWS</text></g><g class="relationship"><path fill="#A5ABB6" stroke="none" d="M 40 0.5 L 125.77491257215723 0.5 L 125.77491257215723 -0.5 L 40 -0.5 Z M 161.99756882215723 0.5 L 247.77248139431447 0.5 L 247.77248139431447 3.5 L 254.77248139431447 0 L 247.77248139431447 -3.5 L 247.77248139431447 -0.5 L 161.99756882215723 -0.5 Z" class="outline" transform="translate(-122.31411710587264 25.72283841632118) rotate(355.7096626204101)"/><text x="143.886" y="3" fill="#000" font-family="sans-serif" font-size="8" pointer-events="none" text-anchor="middle" transform="translate(-122.31411710587264 25.72283841632118) rotate(355.7096626204101)">KNOWS</text></g><g class="relationship"><path fill="#A5ABB6" stroke="none" d="M 40 0.5 L 57.109504725732535 0.5 L 57.109504725732535 -0.5 L 40 -0.5 Z M 93.33216097573253 0.5 L 110.44166570146507 0.5 L 110.44166570146507 3.5 L 117.44166570146507 0 L 110.44166570146507 -3.5 L 110.44166570146507 -0.5 L 93.33216097573253 -0.5 Z" class="outline" transform="translate(-122.31411710587264 25.72283841632118) rotate(504.30193403211786)"/><text x="75.221" y="3" fill="#000" font-family="sans-serif" font-size="8" pointer-events="none" text-anchor="middle" transform="translate(-122.31411710587264 25.72283841632118) rotate(504.30193403211786) rotate(180 75.22083285073253 0)">KNOWS</text></g></g><g class="layer nodes"><g class="node" transform="translate(-579.233958527067,2.6687914275837272)"><circle cx="0" cy="0" r="40" fill="#DA7194" stroke="#cc3c6c" stroke-width="2" class="outline"/><text y="5" fill="#FFF" font-family="sans-serif" font-size="10" pointer-events="none" text-anchor="middle">Alicia</text></g><g class="node" transform="translate(-516.414016987901,151.3327895818165)"><circle cx="0" cy="0" r="40" fill="#569480" stroke="#447666" stroke-width="2" class="outline"/><text y="5" fill="#FFF" font-family="sans-serif" font-size="10" pointer-events="none" text-anchor="middle">Jonny</text></g><g class="node" transform="translate(-278.88515377441587,-56.75640184393751)"><circle cx="0" cy="0" r="40" fill="#FFC454" stroke="#d7a013" stroke-width="2" class="outline"/><text y="5" fill="#604A0E" font-family="sans-serif" font-size="10" pointer-events="none" text-anchor="middle">Joe</text></g><g class="node" transform="translate(-380.2171873847153,-210.51392727672052)"><circle cx="0" cy="0" r="40" fill="#DA7194" stroke="#cc3c6c" stroke-width="2" class="outline"/><text y="5" fill="#FFF" font-family="sans-serif" font-size="10" pointer-events="none" text-anchor="middle">Jake</text></g><g class="node" transform="translate(-333.77333224129626,56.22804884679286)"><circle cx="0" cy="0" r="40" fill="#569480" stroke="#447666" stroke-width="2" class="outline"/><text y="5" fill="#FFF" font-family="sans-serif" font-size="10" pointer-events="none" text-anchor="middle">Anthony</text></g><g class="node" transform="translate(-9.405910981594047,-56.61325620957717)"><circle cx="0" cy="0" r="40" fill="#4C8EDA" stroke="#2870c2" stroke-width="2" class="outline"/><text y="5" fill="#FFF" font-family="sans-serif" font-size="10" pointer-events="none" text-anchor="middle">Praveena</text></g><g class="node" transform="translate(-137.34446675114896,-174.42579868034068)"><circle cx="0" cy="0" r="40" fill="#ECB5C9" stroke="#da7298" stroke-width="2" class="outline"/><text y="5" fill="#604A0E" font-family="sans-serif" font-size="10" pointer-events="none" text-anchor="middle">Mark</text></g><g class="node" transform="translate(-122.31411710587264,25.72283841632118)"><circle cx="0" cy="0" r="40" fill="#4C8EDA" stroke="#2870c2" stroke-width="2" class="outline"/><text y="5" fill="#FFF" font-family="sans-serif" font-size="10" pointer-events="none" text-anchor="middle">Zhen</text></g><g class="node" transform="translate(50.772336108003685,-159.28590480429892)"><circle cx="0" cy="0" r="40" fill="#FFC454" stroke="#d7a013" stroke-width="2" class="outline"/><text y="5" fill="#604A0E" font-family="sans-serif" font-size="10" pointer-events="none" text-anchor="middle">Stefan</text></g><g class="node" transform="translate(59.93927128945222,100.34080492111599)"><circle cx="0" cy="0" r="40" fill="#DA7194" stroke="#cc3c6c" stroke-width="2" class="outline"/><text y="5" fill="#FFF" font-family="sans-serif" font-size="10" pointer-events="none" text-anchor="middle">John</text></g><g class="node" transform="translate(171.63234225801818,3.670745209690267)"><circle cx="0" cy="0" r="40" fill="#4C8EDA" stroke="#2870c2" stroke-width="2" class="outline"/><text y="5" fill="#FFF" font-family="sans-serif" font-size="10" pointer-events="none" text-anchor="middle">Martin</text></g><g class="node" transform="translate(-250.1730014133268,117.59222288418914)"><circle cx="0" cy="0" r="40" fill="#ECB5C9" stroke="#da7298" stroke-width="2" class="outline"/><text y="5" fill="#604A0E" font-family="sans-serif" font-size="10" pointer-events="none" text-anchor="middle">Lju</text></g></g></svg>