<svg xmlns="http://www.w3.org/2000/svg" width="456.183" height="276.296" viewBox="-127.029 -59.525 456.183 276.296"><title>Neo4j Graph Visualization</title><desc>Created using Neo4j (http://www.neo4j.com/)</desc><g class="layer relationships"><g class="relationship"><path fill="#A5ABB6" stroke="none" d="M 40 0.5 L 66.0261623040365 0.5 L 66.0261623040365 -0.5 L 40 -0.5 Z M 102.2488185540365 0.5 L 128.274980858073 0.5 L 128.274980858073 3.5 L 135.274980858073 0 L 128.274980858073 -3.5 L 128.274980858073 -0.5 L 102.2488185540365 -0.5 Z" class="outline" transform="translate(110.57675929625836 156.8614278836803) rotate(365.1139654867989)"/><text x="84.137" y="3" fill="#000" font-family="sans-serif" font-size="8" pointer-events="none" text-anchor="middle" transform="translate(110.57675929625836 156.8614278836803) rotate(365.1139654867989)">KNOWS</text></g><g class="relationship"><path fill="#A5ABB6" stroke="none" d="M 40 0.5 L 65.30167699733872 0.5 L 65.30167699733872 -0.5 L 40 -0.5 Z M 101.52433324733872 0.5 L 126.82601024467743 0.5 L 126.82601024467743 3.5 L 133.82601024467743 0 L 126.82601024467743 -3.5 L 126.82601024467743 -0.5 L 101.52433324733872 -0.5 Z" class="outline" transform="translate(110.57675929625836 156.8614278836803) rotate(262.6218595828833)"/><text x="83.413" y="3" fill="#000" font-family="sans-serif" font-size="8" pointer-events="none" text-anchor="middle" transform="translate(110.57675929625836 156.8614278836803) rotate(262.6218595828833) rotate(180 83.41300512233872 0)">KNOWS</text></g><g class="relationship"><path fill="#A5ABB6" stroke="none" d="M 40 0.5 L 75.51776316170827 0.5 L 75.51776316170827 -0.5 L 40 -0.5 Z M 111.74041941170827 0.5 L 147.25818257341655 0.5 L 147.25818257341655 3.5 L 154.25818257341655 0 L 147.25818257341655 -3.5 L 147.25818257341655 -0.5 L 111.74041941170827 -0.5 Z" class="outline" transform="translate(110.57675929625836 156.8614278836803) rotate(535.3022584258188)"/><text x="93.629" y="3" fill="#000" font-family="sans-serif" font-size="8" pointer-events="none" text-anchor="middle" transform="translate(110.57675929625836 156.8614278836803) rotate(535.3022584258188) rotate(180 93.62909128670827 0)">KNOWS</text></g></g><g class="layer nodes"><g class="node" transform="translate(110.57675929625836,156.8614278836803)"><circle cx="0" cy="0" r="40" fill="#4C8EDA" stroke="#2870c2" stroke-width="2" class="outline"/><text y="5" fill="#FFF" font-family="sans-serif" font-size="10" pointer-events="none" text-anchor="middle">Zhen</text></g><g class="node" transform="translate(285.1540350261233,172.4849266447313)"><circle cx="0" cy="0" r="40" fill="#4C8EDA" stroke="#2870c2" stroke-width="2" class="outline"/><text y="5" fill="#FFF" font-family="sans-serif" font-size="10" pointer-events="none" text-anchor="middle">Martin</text></g><g class="node" transform="translate(88.25450227271872,-15.525342719396278)"><circle cx="0" cy="0" r="40" fill="#ECB5C9" stroke="#da7298" stroke-width="2" class="outline"/><text y="5" fill="#604A0E" font-family="sans-serif" font-size="10" pointer-events="none" text-anchor="middle">Lju</text></g><g class="node" transform="translate(-83.02883541008478,172.77102232005856)"><circle cx="0" cy="0" r="40" fill="#FFC454" stroke="#d7a013" stroke-width="2" class="outline"/><text y="5" fill="#604A0E" font-family="sans-serif" font-size="10" pointer-events="none" text-anchor="middle">Stefan</text></g></g></svg>