<svg xmlns="http://www.w3.org/2000/svg" width="501.742" height="199.044" viewBox="-221.718 -46.569 501.742 199.044"><title>Neo4j Graph Visualization</title><desc>Created using Neo4j (http://www.neo4j.com/)</desc><g class="layer relationships"><g class="relationship"><path fill="#A5ABB6" stroke="none" d="M 40 0.5 L 84.37566145267677 0.5 L 84.37566145267677 -0.5 L 40 -0.5 Z M 129.49284895267675 0.5 L 173.86851040535353 0.5 L 173.86851040535353 3.5 L 180.86851040535353 0 L 173.86851040535353 -3.5 L 173.86851040535353 -0.5 L 129.49284895267675 -0.5 Z" class="outline" transform="translate(-177.7179560651665 97.55535902833697) rotate(362.8337200601926)"/><text x="106.934" y="3" fill="#000" font-family="sans-serif" font-size="8" pointer-events="none" text-anchor="middle" transform="translate(-177.7179560651665 97.55535902833697) rotate(362.8337200601926)">FOLLOWS</text></g><g class="relationship"><path fill="#A5ABB6" stroke="none" d="M 40 0.5 L 70.52004762111861 0.5 L 70.52004762111861 -0.5 L 40 -0.5 Z M 115.63723512111861 0.5 L 146.15728274223721 0.5 L 146.15728274223721 3.5 L 153.15728274223721 0 L 146.15728274223721 -3.5 L 146.15728274223721 -0.5 L 115.63723512111861 -0.5 Z" class="outline" transform="translate(42.88047963982487 108.47456473161705) rotate(359.3111523811708)"/><text x="93.079" y="3" fill="#000" font-family="sans-serif" font-size="8" pointer-events="none" text-anchor="middle" transform="translate(42.88047963982487 108.47456473161705) rotate(359.3111523811708)">FOLLOWS</text></g><g class="relationship"><path fill="#A5ABB6" stroke="none" d="M 40 0.5 L 66.92509075448294 0.5 L 66.92509075448294 -0.5 L 40 -0.5 Z M 112.04227825448294 0.5 L 138.96736900896587 0.5 L 138.96736900896587 3.5 L 145.96736900896587 0 L 138.96736900896587 -3.5 L 138.96736900896587 -0.5 L 112.04227825448294 -0.5 Z" class="outline" transform="translate(42.88047963982487 108.47456473161705) rotate(323.33641529704755)"/><text x="89.484" y="3" fill="#000" font-family="sans-serif" font-size="8" pointer-events="none" text-anchor="middle" transform="translate(42.88047963982487 108.47456473161705) rotate(323.33641529704755)">FOLLOWS</text></g></g><g class="layer nodes"><g class="node" transform="translate(-177.7179560651665,97.55535902833697)"><circle cx="0" cy="0" r="40" fill="#DA7194" stroke="#cc3c6c" stroke-width="2" class="outline"/><text y="5" fill="#FFF" font-family="sans-serif" font-size="10" pointer-events="none" text-anchor="middle">Alicia</text></g><g class="node" transform="translate(42.88047963982487,108.47456473161705)"><circle cx="0" cy="0" r="40" fill="#FFC454" stroke="#d7a013" stroke-width="2" class="outline"/><text y="5" fill="#604A0E" font-family="sans-serif" font-size="10" pointer-events="none" text-anchor="middle">Joe</text></g><g class="node" transform="translate(236.023802655275,106.15235653378943)"><circle cx="0" cy="0" r="40" fill="#ECB5C9" stroke="#da7298" stroke-width="2" class="outline"/><text y="5" fill="#604A0E" font-family="sans-serif" font-size="10" pointer-events="none" text-anchor="middle">Mark</text></g><g class="node" transform="translate(192.0551927354834,-2.5694234394894693)"><circle cx="0" cy="0" r="40" fill="#4C8EDA" stroke="#2870c2" stroke-width="2" class="outline"/><text y="5" fill="#FFF" font-family="sans-serif" font-size="10" pointer-events="none" text-anchor="middle">Zhen</text></g></g></svg>