<svg xmlns="http://www.w3.org/2000/svg" width="600.334" height="374.906" viewBox="-87.201 -115.534 600.334 374.906"><title>Neo4j Graph Visualization</title><desc>Created using Neo4j (http://www.neo4j.com/)</desc><g class="layer relationships"><g class="relationship"><path fill="#A5ABB6" stroke="none" d="M 40 0.5 L 52.66875071562261 0.5 L 52.66875071562261 -0.5 L 40 -0.5 Z M 87.11406321562261 0.5 L 99.78281393124522 0.5 L 99.78281393124522 3.5 L 106.78281393124522 0 L 99.78281393124522 -3.5 L 99.78281393124522 -0.5 L 87.11406321562261 -0.5 Z" class="outline" transform="translate(189.01300202753853 69.16221294979138) rotate(455.0631679911735)"/><text x="69.891" y="3" fill="#000" font-family="sans-serif" font-size="8" pointer-events="none" text-anchor="middle" transform="translate(189.01300202753853 69.16221294979138) rotate(455.0631679911735) rotate(180 69.89140696562261 0)">ENTITY</text></g><g class="relationship"><path fill="#A5ABB6" stroke="none" d="M 40 0.5 L 119.52945636723976 0.5 L 119.52945636723976 -0.5 L 40 -0.5 Z M 153.97476886723976 0.5 L 233.50422523447952 0.5 L 233.50422523447952 3.5 L 240.50422523447952 0 L 233.50422523447952 -3.5 L 233.50422523447952 -0.5 L 153.97476886723976 -0.5 Z" class="outline" transform="translate(189.01300202753853 69.16221294979138) rotate(356.9987356440861)"/><text x="136.752" y="3" fill="#000" font-family="sans-serif" font-size="8" pointer-events="none" text-anchor="middle" transform="translate(189.01300202753853 69.16221294979138) rotate(356.9987356440861)">ENTITY</text></g><g class="relationship"><path fill="#A5ABB6" stroke="none" d="M 40 0.5 L 77.05726109232505 0.5 L 77.05726109232505 -0.5 L 40 -0.5 Z M 111.50257359232505 0.5 L 148.5598346846501 0.5 L 148.5598346846501 3.5 L 155.5598346846501 0 L 148.5598346846501 -3.5 L 148.5598346846501 -0.5 L 111.50257359232505 -0.5 Z" class="outline" transform="translate(189.01300202753853 69.16221294979138) rotate(324.3334873168811)"/><text x="94.28" y="3" fill="#000" font-family="sans-serif" font-size="8" pointer-events="none" text-anchor="middle" transform="translate(189.01300202753853 69.16221294979138) rotate(324.3334873168811)">ENTITY</text></g><g class="relationship"><path fill="#A5ABB6" stroke="none" d="M 40 0.5 L 51.210087148159545 0.5 L 51.210087148159545 -0.5 L 40 -0.5 Z M 85.65539964815954 0.5 L 96.86548679631909 0.5 L 96.86548679631909 3.5 L 103.86548679631909 0 L 96.86548679631909 -3.5 L 96.86548679631909 -0.5 L 85.65539964815954 -0.5 Z" class="outline" transform="translate(189.01300202753853 69.16221294979138) rotate(257.9505570637564)"/><text x="68.433" y="3" fill="#000" font-family="sans-serif" font-size="8" pointer-events="none" text-anchor="middle" transform="translate(189.01300202753853 69.16221294979138) rotate(257.9505570637564) rotate(180 68.43274339815954 0)">ENTITY</text></g><g class="relationship"><path fill="#A5ABB6" stroke="none" d="M 40 0.5 L 101.80541125293276 0.5 L 101.80541125293276 -0.5 L 40 -0.5 Z M 136.25072375293274 0.5 L 198.0561350058655 0.5 L 198.0561350058655 3.5 L 205.0561350058655 0 L 198.0561350058655 -3.5 L 198.0561350058655 -0.5 L 136.25072375293274 -0.5 Z" class="outline" transform="translate(189.01300202753853 69.16221294979138) rotate(198.63100556326577)"/><text x="119.028" y="3" fill="#000" font-family="sans-serif" font-size="8" pointer-events="none" text-anchor="middle" transform="translate(189.01300202753853 69.16221294979138) rotate(198.63100556326577) rotate(180 119.02806750293276 0)">ENTITY</text></g><g class="relationship"><path fill="#A5ABB6" stroke="none" d="M 40 0.5 L 82.11518062588945 0.5 L 82.11518062588945 -0.5 L 40 -0.5 Z M 116.56049312588945 0.5 L 158.6756737517789 0.5 L 158.6756737517789 3.5 L 165.6756737517789 0 L 158.6756737517789 -3.5 L 158.6756737517789 -0.5 L 116.56049312588945 -0.5 Z" class="outline" transform="translate(189.01300202753853 69.16221294979138) rotate(528.6576539116653)"/><text x="99.338" y="3" fill="#000" font-family="sans-serif" font-size="8" pointer-events="none" text-anchor="middle" transform="translate(189.01300202753853 69.16221294979138) rotate(528.6576539116653) rotate(180 99.33783687588945 0)">ENTITY</text></g><g class="relationship"><path fill="#A5ABB6" stroke="none" d="M 40 0.5 L 83.22224223595677 0.5 L 83.22224223595677 -0.5 L 40 -0.5 Z M 117.66755473595677 0.5 L 160.88979697191354 0.5 L 160.88979697191354 3.5 L 167.88979697191354 0 L 160.88979697191354 -3.5 L 160.88979697191354 -0.5 L 117.66755473595677 -0.5 Z" class="outline" transform="translate(189.01300202753853 69.16221294979138) rotate(388.7621571478529)"/><text x="100.445" y="3" fill="#000" font-family="sans-serif" font-size="8" pointer-events="none" text-anchor="middle" transform="translate(189.01300202753853 69.16221294979138) rotate(388.7621571478529)">ENTITY</text></g></g><g class="layer nodes"><g class="node" transform="translate(176.0588339623847,215.37228098655245)"><circle cx="0" cy="0" r="40" fill="#FFC454" stroke="#d7a013" stroke-width="2" class="outline"/><text y="5" fill="#604A0E" font-family="sans-serif" font-size="10" pointer-events="none" text-anchor="middle">Nintendo Switch</text></g><g class="node" transform="translate(469.1324819457452,54.47557464318723)"><circle cx="0" cy="0" r="40" fill="#4C8EDA" stroke="#2870c2" stroke-width="2" class="outline"/><text y="5" fill="#FFF" font-family="sans-serif" font-size="10" pointer-events="none" text-anchor="middle">at least</text></g><g class="node" transform="translate(347.8905925694355,-44.86217113312747)"><circle cx="0" cy="0" r="40" fill="#4C8EDA" stroke="#2870c2" stroke-width="2" class="outline"/><text y="5" fill="#FFF" font-family="sans-serif" font-size="10" pointer-events="none" text-anchor="middle">once</text></g><g class="node" transform="translate(158.98026191673748,-71.53360366384837)"><circle cx="0" cy="0" r="40" fill="#4C8EDA" stroke="#2870c2" stroke-width="2" class="outline"/><text y="5" fill="#FFF" font-family="sans-serif" font-size="10" pointer-events="none" text-anchor="middle">twice a week</text></g><g class="node" transform="translate(-43.20112959751221,-9.12639655144185)"><circle cx="0" cy="0" r="40" fill="#569480" stroke="#447666" stroke-width="2" class="outline"/><text y="5" fill="#FFF" font-family="sans-serif" font-size="10" pointer-events="none" text-anchor="middle">Mario Kart 8</text></g><g class="node" transform="translate(-12.645737605813082,109.6126208925587)"><circle cx="0" cy="0" r="40" fill="#DA7194" stroke="#cc3c6c" stroke-width="2" class="outline"/><text y="5" fill="#FFF" font-family="sans-serif" font-size="10" pointer-events="none" text-anchor="middle">Neo4j</text></g><g class="node" transform="translate(371.2543285009028,169.19354109378884)"><circle cx="0" cy="0" r="40" fill="#DA7194" stroke="#cc3c6c" stroke-width="2" class="outline"/><text y="5" fill="#FFF" font-family="sans-serif" font-size="10" pointer-events="none" text-anchor="middle">European</text></g><g class="node" transform="translate(189.01300202753853,69.16221294979138)"><circle cx="0" cy="0" r="40" fill="#F79767" stroke="#f36924" stroke-width="2" class="outline"/><text y="5" fill="#FFF" font-family="sans-serif" font-size="10" pointer-events="none" text-anchor="middle">https://neo4j.co…</text></g></g></svg>