<svg xmlns="http://www.w3.org/2000/svg" width="1111.393" height="527.357" viewBox="-311.382 -172.7 1111.393 527.357"><title>Neo4j Graph Visualization</title><desc>Created using Neo4j (http://www.neo4j.com/)</desc><g class="layer relationships"><g class="relationship"><path fill="#A5ABB6" stroke="none" d="M 40 0.5 L 135.65579032374842 0.5 L 135.65579032374842 -0.5 L 40 -0.5 Z M 219.51516532374842 0.5 L 315.17095564749684 0.5 L 315.17095564749684 3.5 L 322.17095564749684 0 L 315.17095564749684 -3.5 L 315.17095564749684 -0.5 L 219.51516532374842 -0.5 Z" class="outline" transform="translate(637.6503780807964 107.83881679766057) rotate(530.8237239001236)"/><text x="177.585" y="3" fill="#000" font-family="sans-serif" font-size="8" pointer-events="none" text-anchor="middle" transform="translate(637.6503780807964 107.83881679766057) rotate(530.8237239001236) rotate(180 177.58547782374842 0)">0.8339868065025469</text></g><g class="relationship"><path fill="#A5ABB6" stroke="none" d="M 40 0.5 L 172.1519631050749 0.5 L 172.1519631050749 -0.5 L 40 -0.5 Z M 193.7222756050749 0.5 L 325.8742387101498 0.5 L 325.8742387101498 3.5 L 332.8742387101498 0 L 325.8742387101498 -3.5 L 325.8742387101498 -0.5 L 193.7222756050749 -0.5 Z" class="outline" transform="translate(637.6503780807964 107.83881679766057) rotate(184.28962735594143)"/><text x="182.937" y="3" fill="#000" font-family="sans-serif" font-size="8" pointer-events="none" text-anchor="middle" transform="translate(637.6503780807964 107.83881679766057) rotate(184.28962735594143) rotate(180 182.9371193550749 0)">0.94</text></g><g class="relationship"><path fill="#A5ABB6" stroke="none" d="M 40 0.5 L 40.54801063045457 0.5 L 40.54801063045457 -0.5 L 40 -0.5 Z M 101.26285438045457 0.5 L 101.81086501090914 0.5 L 101.81086501090914 3.5 L 108.81086501090914 0 L 101.81086501090914 -3.5 L 101.81086501090914 -0.5 L 101.26285438045457 -0.5 Z" class="outline" transform="translate(637.6503780807964 107.83881679766057) rotate(397.30965740067785)"/><text x="70.905" y="3" fill="#000" font-family="sans-serif" font-size="8" pointer-events="none" text-anchor="middle" transform="translate(637.6503780807964 107.83881679766057) rotate(397.30965740067785)">0.032446316…</text></g><g class="relationship"><path fill="#A5ABB6" stroke="none" d="M 40 0.5 L 80.99505004351346 0.5 L 80.99505004351346 -0.5 L 40 -0.5 Z M 98.11614379351346 0.5 L 139.11119383702692 0.5 L 139.11119383702692 3.5 L 146.11119383702692 0 L 139.11119383702692 -3.5 L 139.11119383702692 -0.5 L 98.11614379351346 -0.5 Z" class="outline" transform="translate(637.6503780807964 107.83881679766057) rotate(461.86446398771886)"/><text x="89.556" y="3" fill="#000" font-family="sans-serif" font-size="8" pointer-events="none" text-anchor="middle" transform="translate(637.6503780807964 107.83881679766057) rotate(461.86446398771886) rotate(180 89.55559691851346 0)">0.8</text></g><g class="relationship"><path fill="#A5ABB6" stroke="none" d="M 40 0.5 L 154.76635184063983 0.5 L 154.76635184063983 -0.5 L 40 -0.5 Z M 238.62572684063983 0.5 L 353.39207868127966 0.5 L 353.39207868127966 3.5 L 360.39207868127966 0 L 353.39207868127966 -3.5 L 353.39207868127966 -0.5 L 238.62572684063983 -0.5 Z" class="outline" transform="translate(637.6503780807964 107.83881679766057) rotate(509.5658514245654)"/><text x="196.696" y="3" fill="#000" font-family="sans-serif" font-size="8" pointer-events="none" text-anchor="middle" transform="translate(637.6503780807964 107.83881679766057) rotate(509.5658514245654) rotate(180 196.69603934063983 0)">0.7802000593632747</text></g><g class="relationship"><path fill="#A5ABB6" stroke="none" d="M 40 0.5 L 215.9463160991918 0.5 L 215.9463160991918 -0.5 L 40 -0.5 Z M 237.5166285991918 0.5 L 413.4629446983836 0.5 L 413.4629446983836 3.5 L 420.4629446983836 0 L 413.4629446983836 -3.5 L 413.4629446983836 -0.5 L 237.5166285991918 -0.5 Z" class="outline" transform="translate(637.6503780807964 107.83881679766057) rotate(210.91047440234115)"/><text x="226.731" y="3" fill="#000" font-family="sans-serif" font-size="8" pointer-events="none" text-anchor="middle" transform="translate(637.6503780807964 107.83881679766057) rotate(210.91047440234115) rotate(180 226.7314723491918 0)">0.72</text></g><g class="relationship"><path fill="#A5ABB6" stroke="none" d="M 40 0.5 L 196.98052587546593 0.5 L 196.98052587546593 -0.5 L 40 -0.5 Z M 214.10161962546593 0.5 L 371.08214550093186 0.5 L 371.08214550093186 3.5 L 378.08214550093186 0 L 371.08214550093186 -3.5 L 371.08214550093186 -0.5 L 214.10161962546593 -0.5 Z" class="outline" transform="translate(637.6503780807964 107.83881679766057) rotate(195.91985739278516)"/><text x="205.541" y="3" fill="#000" font-family="sans-serif" font-size="8" pointer-events="none" text-anchor="middle" transform="translate(637.6503780807964 107.83881679766057) rotate(195.91985739278516) rotate(180 205.54107275046593 0)">0.8</text></g><g class="relationship"><path fill="#A5ABB6" stroke="none" d="M 40 0.5 L 68.63025559486513 0.5 L 68.63025559486513 -0.5 L 40 -0.5 Z M 152.48963059486513 0.5 L 181.11988618973027 0.5 L 181.11988618973027 3.5 L 188.11988618973027 0 L 181.11988618973027 -3.5 L 181.11988618973027 -0.5 L 152.48963059486513 -0.5 Z" class="outline" transform="translate(637.6503780807964 107.83881679766057) rotate(227.83866784823527)"/><text x="110.56" y="3" fill="#000" font-family="sans-serif" font-size="8" pointer-events="none" text-anchor="middle" transform="translate(637.6503780807964 107.83881679766057) rotate(227.83866784823527) rotate(180 110.55994309486513 0)">0.8150388253887939</text></g><g class="relationship"><path fill="#A5ABB6" stroke="none" d="M 40 0.5 L 40.09819472412819 0.5 L 40.09819472412819 -0.5 L 40 -0.5 Z M 114.16069472412819 0.5 L 114.25888944825638 0.5 L 114.25888944825638 3.5 L 121.25888944825638 0 L 114.25888944825638 -3.5 L 114.25888944825638 -0.5 L 114.16069472412819 -0.5 Z" class="outline" transform="translate(637.6503780807964 107.83881679766057) rotate(264.3204232265251)"/><text x="77.129" y="3" fill="#000" font-family="sans-serif" font-size="8" pointer-events="none" text-anchor="middle" transform="translate(637.6503780807964 107.83881679766057) rotate(264.3204232265251) rotate(180 77.12944472412819 0)">0.005917599267…</text></g><g class="relationship"><path fill="#A5ABB6" stroke="none" d="M 40 0.5 L 112.39029118340306 0.5 L 112.39029118340306 -0.5 L 40 -0.5 Z M 196.24966618340306 0.5 L 268.63995736680613 0.5 L 268.63995736680613 3.5 L 275.63995736680613 0 L 268.63995736680613 -3.5 L 268.63995736680613 -0.5 L 196.24966618340306 -0.5 Z" class="outline" transform="translate(-34.2559908236313 137.31308532181555) rotate(365.14071926159033)"/><text x="154.32" y="3" fill="#000" font-family="sans-serif" font-size="8" pointer-events="none" text-anchor="middle" transform="translate(-34.2559908236313 137.31308532181555) rotate(365.14071926159033)">0.9355623498560008</text></g><g class="relationship"><path fill="#A5ABB6" stroke="none" d="M 40 0.5 L 138.47012329395636 0.5 L 138.47012329395636 -0.5 L 40 -0.5 Z M 160.04043579395636 0.5 L 258.5105590879127 0.5 L 258.5105590879127 3.5 L 265.5105590879127 0 L 258.5105590879127 -3.5 L 258.5105590879127 -0.5 L 160.04043579395636 -0.5 Z" class="outline" transform="translate(-34.2559908236313 137.31308532181555) rotate(349.1775428856338)"/><text x="149.255" y="3" fill="#000" font-family="sans-serif" font-size="8" pointer-events="none" text-anchor="middle" transform="translate(-34.2559908236313 137.31308532181555) rotate(349.1775428856338)">0.85</text></g><g class="relationship"><path fill="#A5ABB6" stroke="none" d="M 40 0.5 L 102.33356659714363 0.5 L 102.33356659714363 -0.5 L 40 -0.5 Z M 123.90387909714363 0.5 L 186.23744569428726 0.5 L 186.23744569428726 3.5 L 193.23744569428726 0 L 186.23744569428726 -3.5 L 186.23744569428726 -0.5 L 123.90387909714363 -0.5 Z" class="outline" transform="translate(-34.2559908236313 137.31308532181555) rotate(181.76783535108382)"/><text x="113.119" y="3" fill="#000" font-family="sans-serif" font-size="8" pointer-events="none" text-anchor="middle" transform="translate(-34.2559908236313 137.31308532181555) rotate(181.76783535108382) rotate(180 113.11872284714363 0)">0.98</text></g><g class="relationship"><path fill="#A5ABB6" stroke="none" d="M 40 0.5 L 59.488458565691644 0.5 L 59.488458565691644 -0.5 L 40 -0.5 Z M 147.79705231569164 0.5 L 167.2855108813833 0.5 L 167.2855108813833 3.5 L 174.2855108813833 0 L 167.2855108813833 -3.5 L 167.2855108813833 -0.5 L 147.79705231569164 -0.5 Z" class="outline" transform="translate(-34.2559908236313 137.31308532181555) rotate(295.2755203800133)"/><text x="103.643" y="3" fill="#000" font-family="sans-serif" font-size="8" pointer-events="none" text-anchor="middle" transform="translate(-34.2559908236313 137.31308532181555) rotate(295.2755203800133)">0.17175475041657506</text></g><g class="relationship"><path fill="#A5ABB6" stroke="none" d="M 40 0.5 L 115.88443874287469 0.5 L 115.88443874287469 -0.5 L 40 -0.5 Z M 133.0055324928747 0.5 L 208.88997123574939 0.5 L 208.88997123574939 3.5 L 215.88997123574939 0 L 208.88997123574939 -3.5 L 208.88997123574939 -0.5 L 133.0055324928747 -0.5 Z" class="outline" transform="translate(-34.2559908236313 137.31308532181555) rotate(221.19088672246488)"/><text x="124.445" y="3" fill="#000" font-family="sans-serif" font-size="8" pointer-events="none" text-anchor="middle" transform="translate(-34.2559908236313 137.31308532181555) rotate(221.19088672246488) rotate(180 124.44498561787469 0)">0.8</text></g><g class="relationship"><path fill="#A5ABB6" stroke="none" d="M 40 0.5 L 59.23538522181195 0.5 L 59.23538522181195 -0.5 L 40 -0.5 Z M 147.54397897181195 0.5 L 166.7793641936239 0.5 L 166.7793641936239 3.5 L 173.7793641936239 0 L 166.7793641936239 -3.5 L 166.7793641936239 -0.5 L 147.54397897181195 -0.5 Z" class="outline" transform="translate(-34.2559908236313 137.31308532181555) rotate(509.0745815341777)"/><text x="103.39" y="3" fill="#000" font-family="sans-serif" font-size="8" pointer-events="none" text-anchor="middle" transform="translate(-34.2559908236313 137.31308532181555) rotate(509.0745815341777) rotate(180 103.38968209681195 0)">0.19698770368988128</text></g><g class="relationship"><path fill="#A5ABB6" stroke="none" d="M 40 0.5 L 76.01063529002465 0.5 L 76.01063529002465 -0.5 L 40 -0.5 Z M 93.13172904002465 0.5 L 129.1423643300493 0.5 L 129.1423643300493 3.5 L 136.1423643300493 0 L 129.1423643300493 -3.5 L 129.1423643300493 -0.5 L 93.13172904002465 -0.5 Z" class="outline" transform="translate(-34.2559908236313 137.31308532181555) rotate(472.53189594202394)"/><text x="84.571" y="3" fill="#000" font-family="sans-serif" font-size="8" pointer-events="none" text-anchor="middle" transform="translate(-34.2559908236313 137.31308532181555) rotate(472.53189594202394) rotate(180 84.57118216502465 0)">0.8</text></g><g class="relationship"><path fill="#A5ABB6" stroke="none" d="M 40 0.5 L 66.00295157481858 0.5 L 66.00295157481858 -0.5 L 40 -0.5 Z M 149.86232657481858 0.5 L 175.86527814963716 0.5 L 175.86527814963716 3.5 L 182.86527814963716 0 L 175.86527814963716 -3.5 L 175.86527814963716 -0.5 L 149.86232657481858 -0.5 Z" class="outline" transform="translate(-34.2559908236313 137.31308532181555) rotate(260.4949593251802)"/><text x="107.933" y="3" fill="#000" font-family="sans-serif" font-size="8" pointer-events="none" text-anchor="middle" transform="translate(-34.2559908236313 137.31308532181555) rotate(260.4949593251802) rotate(180 107.93263907481858 0)">0.9023679924293266</text></g><g class="relationship"><path fill="#A5ABB6" stroke="none" d="M 40 0.5 L 47.48194727138207 0.5 L 47.48194727138207 -0.5 L 40 -0.5 Z M 140.23975977138207 0.5 L 147.72170704276414 0.5 L 147.72170704276414 3.5 L 154.72170704276414 0 L 147.72170704276414 -3.5 L 147.72170704276414 -0.5 L 140.23975977138207 -0.5 Z" class="outline" transform="translate(-34.2559908236313 137.31308532181555) rotate(412.6512887104276)"/><text x="93.861" y="3" fill="#000" font-family="sans-serif" font-size="8" pointer-events="none" text-anchor="middle" transform="translate(-34.2559908236313 137.31308532181555) rotate(412.6512887104276)">0.031043862798465494</text></g><g class="relationship"><path fill="#A5ABB6" stroke="none" d="M 40 0.5 L 139.48251165913587 0.5 L 139.48251165913587 -0.5 L 40 -0.5 Z M 223.34188665913587 0.5 L 322.82439831827173 0.5 L 322.82439831827173 3.5 L 329.82439831827173 0 L 322.82439831827173 -3.5 L 322.82439831827173 -0.5 L 223.34188665913587 -0.5 Z" class="outline" transform="translate(-34.2559908236313 137.31308532181555) rotate(387.951125379494)"/><text x="181.412" y="3" fill="#000" font-family="sans-serif" font-size="8" pointer-events="none" text-anchor="middle" transform="translate(-34.2559908236313 137.31308532181555) rotate(387.951125379494)">0.8863202650046607</text></g><g class="relationship selected"><path fill="#A5ABB6" stroke="none" d="M 40 0.5 L 177.6815109588176 0.5 L 177.6815109588176 -0.5 L 40 -0.5 Z M 199.2518234588176 0.5 L 336.9333344176352 0.5 L 336.9333344176352 3.5 L 343.9333344176352 0 L 336.9333344176352 -3.5 L 336.9333344176352 -0.5 L 199.2518234588176 -0.5 Z" class="outline" transform="translate(-34.2559908236313 137.31308532181555) rotate(316.14282822759674)"/><text x="188.467" y="3" fill="#000" font-family="sans-serif" font-size="8" pointer-events="none" text-anchor="middle" transform="translate(-34.2559908236313 137.31308532181555) rotate(316.14282822759674)">0.92</text></g><g class="relationship"><path fill="#A5ABB6" stroke="none" d="M 40 0.5 L 140.91292311407756 0.5 L 140.91292311407756 -0.5 L 40 -0.5 Z M 158.03401686407756 0.5 L 258.9469399781551 0.5 L 258.9469399781551 3.5 L 265.9469399781551 0 L 258.9469399781551 -3.5 L 258.9469399781551 -0.5 L 158.03401686407756 -0.5 Z" class="outline" transform="translate(-34.2559908236313 137.31308532181555) rotate(331.8901425957649)"/><text x="149.473" y="3" fill="#000" font-family="sans-serif" font-size="8" pointer-events="none" text-anchor="middle" transform="translate(-34.2559908236313 137.31308532181555) rotate(331.8901425957649)">0.8</text></g></g><g class="layer nodes"><g class="node" transform="translate(637.6503780807964,107.83881679766057)"><circle cx="0" cy="0" r="40" fill="#DA7194" stroke="#cc3c6c" stroke-width="2" class="outline"/><text y="5" fill="#FFF" font-family="sans-serif" font-size="10" pointer-events="none" text-anchor="middle">https://neo4j.co…</text></g><g class="node" transform="translate(280.1143483791227,165.5951028606081)"><circle cx="0" cy="0" r="40" fill="#4C8EDA" stroke="#2870c2" stroke-width="2" class="outline"/><text y="5" fill="#FFF" font-family="sans-serif" font-size="10" pointer-events="none" text-anchor="middle">Nintendo Switch</text></g><g class="node" transform="translate(265.8206752970701,79.94849551160164)"><circle cx="0" cy="0" r="40" fill="#F16667" stroke="#eb2728" stroke-width="2" class="outline"/><text y="5" fill="#FFF" font-family="sans-serif" font-size="10" pointer-events="none" text-anchor="middle">Nintendo Switch</text></g><g class="node" transform="translate(756.0102734242074,198.03642607635382)"><circle cx="0" cy="0" r="40" fill="#F16667" stroke="#eb2728" stroke-width="2" class="outline"/><text y="5" fill="#FFF" font-family="sans-serif" font-size="10" pointer-events="none" text-anchor="middle">Oberon Media</text></g><g class="node" transform="translate(599.386427591756,289.9740593083171)"><circle cx="0" cy="0" r="40" fill="#FFC454" stroke="#d7a013" stroke-width="2" class="outline"/><text y="5" fill="#604A0E" font-family="sans-serif" font-size="10" pointer-events="none" text-anchor="middle">a week</text></g><g class="node" transform="translate(292.42755623284734,310.6565180617645)"><circle cx="0" cy="0" r="40" fill="#4C8EDA" stroke="#2870c2" stroke-width="2" class="outline"/><text y="5" fill="#FFF" font-family="sans-serif" font-size="10" pointer-events="none" text-anchor="middle">Mario Kart 8</text></g><g class="node" transform="translate(242.58652059561564,-128.70012703450305)"><circle cx="0" cy="0" r="40" fill="#F16667" stroke="#eb2728" stroke-width="2" class="outline"/><text y="5" fill="#FFF" font-family="sans-serif" font-size="10" pointer-events="none" text-anchor="middle">Mario Kart</text></g><g class="node" transform="translate(235.60322815061278,-6.83798826630526)"><circle cx="0" cy="0" r="40" fill="#57C7E3" stroke="#23b3d7" stroke-width="2" class="outline"/><text y="5" fill="#FFF" font-family="sans-serif" font-size="10" pointer-events="none" text-anchor="middle">8</text></g><g class="node" transform="translate(484.53163829111713,-61.256818865818346)"><circle cx="0" cy="0" r="40" fill="#4C8EDA" stroke="#2870c2" stroke-width="2" class="outline"/><text y="5" fill="#FFF" font-family="sans-serif" font-size="10" pointer-events="none" text-anchor="middle">Neo4j</text></g><g class="node" transform="translate(621.6913834834878,-52.62843817209347)"><circle cx="0" cy="0" r="40" fill="#C990C0" stroke="#b261a5" stroke-width="2" class="outline"/><text y="5" fill="#FFF" font-family="sans-serif" font-size="10" pointer-events="none" text-anchor="middle">Europe</text></g><g class="node" transform="translate(-34.2559908236313,137.31308532181555)"><circle cx="0" cy="0" r="40" fill="#DA7194" stroke="#cc3c6c" stroke-width="2" class="outline"/><text y="5" fill="#FFF" font-family="sans-serif" font-size="10" pointer-events="none" text-anchor="middle">https://en.wikip…</text></g><g class="node" transform="translate(-267.3824239394603,130.11779125649042)"><circle cx="0" cy="0" r="40" fill="#F16667" stroke="#eb2728" stroke-width="2" class="outline"/><text y="5" fill="#FFF" font-family="sans-serif" font-size="10" pointer-events="none" text-anchor="middle">Nintendo</text></g><g class="node" transform="translate(57.237827004077985,-56.45781412649013)"><circle cx="0" cy="0" r="40" fill="#4C8EDA" stroke="#2870c2" stroke-width="2" class="outline"/><text y="5" fill="#FFF" font-family="sans-serif" font-size="10" pointer-events="none" text-anchor="middle">March 3</text></g><g class="node" transform="translate(-226.8182271116774,-31.20831549950253)"><circle cx="0" cy="0" r="40" fill="#FFC454" stroke="#d7a013" stroke-width="2" class="outline"/><text y="5" fill="#604A0E" font-family="sans-serif" font-size="10" pointer-events="none" text-anchor="middle">March 3, 2017</text></g><g class="node" transform="translate(-217.64383839884644,247.178975919215)"><circle cx="0" cy="0" r="40" fill="#4C8EDA" stroke="#2870c2" stroke-width="2" class="outline"/><text y="5" fill="#FFF" font-family="sans-serif" font-size="10" pointer-events="none" text-anchor="middle">October 20</text></g><g class="node" transform="translate(-101.75333738325033,300.00986070224684)"><circle cx="0" cy="0" r="40" fill="#FFC454" stroke="#d7a013" stroke-width="2" class="outline"/><text y="0" fill="#604A0E" font-family="sans-serif" font-size="10" pointer-events="none" text-anchor="middle">October 20,</text><text y="10" fill="#604A0E" font-family="sans-serif" font-size="10" pointer-events="none" text-anchor="middle">2016</text></g><g class="node" transform="translate(-71.05870925142769,-82.49249268074443)"><circle cx="0" cy="0" r="40" fill="#4C8EDA" stroke="#2870c2" stroke-width="2" class="outline"/><text y="5" fill="#FFF" font-family="sans-serif" font-size="10" pointer-events="none" text-anchor="middle">Joy-Con</text></g><g class="node" transform="translate(83.87475052676284,292.1086638815869)"><circle cx="0" cy="0" r="40" fill="#4C8EDA" stroke="#2870c2" stroke-width="2" class="outline"/><text y="5" fill="#FFF" font-family="sans-serif" font-size="10" pointer-events="none" text-anchor="middle">Wheel</text></g></g></svg>