<svg xmlns="http://www.w3.org/2000/svg" width="642.97" height="236.438" viewBox="-277.133 -13.027 642.97 236.438"><title>Neo4j Graph Visualization</title><desc>Created using Neo4j (http://www.neo4j.com/)</desc><g class="layer relationships"><g class="relationship"><path fill="#A5ABB6" stroke="none" d="M 40 0.5 L 97.39848603301566 0.5 L 97.39848603301566 -0.5 L 40 -0.5 Z M 142.51567353301567 0.5 L 199.91415956603132 0.5 L 199.91415956603132 3.5 L 206.91415956603132 0 L 199.91415956603132 -3.5 L 199.91415956603132 -0.5 L 142.51567353301567 -0.5 Z" class="outline" transform="translate(-233.1332150933538 142.59609751555683) rotate(333.12319445091066)"/><text x="119.957" y="3" fill="#000" font-family="sans-serif" font-size="8" pointer-events="none" text-anchor="middle" transform="translate(-233.1332150933538 142.59609751555683) rotate(333.12319445091066)">FOLLOWS</text></g><g class="relationship"><path fill="#A5ABB6" stroke="none" d="M 40 0.5 L 89.22451117913477 0.5 L 89.22451117913477 -0.5 L 40 -0.5 Z M 125.44716742913477 0.5 L 174.67167860826953 0.5 L 174.67167860826953 3.5 L 181.67167860826953 0 L 174.67167860826953 -3.5 L 174.67167860826953 -0.5 L 125.44716742913477 -0.5 Z" class="outline" transform="translate(-233.1332150933538 142.59609751555683) rotate(369.5596995292193)"/><text x="107.336" y="3" fill="#000" font-family="sans-serif" font-size="8" pointer-events="none" text-anchor="middle" transform="translate(-233.1332150933538 142.59609751555683) rotate(369.5596995292193)">KNOWS</text></g><g class="relationship"><path fill="#A5ABB6" stroke="none" d="M 40 0.5 L 77.95269049371905 0.5 L 77.95269049371905 -0.5 L 40 -0.5 Z M 114.17534674371905 0.5 L 152.1280372374381 0.5 L 152.1280372374381 3.5 L 159.1280372374381 0 L 152.1280372374381 -3.5 L 152.1280372374381 -0.5 L 114.17534674371905 -0.5 Z" class="outline" transform="translate(-12.890572194849142 30.972710883178905) rotate(365.2637399547213)"/><text x="96.064" y="3" fill="#000" font-family="sans-serif" font-size="8" pointer-events="none" text-anchor="middle" transform="translate(-12.890572194849142 30.972710883178905) rotate(365.2637399547213)">KNOWS</text></g><g class="relationship"><path fill="#A5ABB6" stroke="none" d="M 40 0.5 L 66.05268160349493 0.5 L 66.05268160349493 -0.5 L 40 -0.5 Z M 102.27533785349493 0.5 L 128.32801945698986 0.5 L 128.32801945698986 3.5 L 135.32801945698986 0 L 128.32801945698986 -3.5 L 128.32801945698986 -0.5 L 102.27533785349493 -0.5 Z" class="outline" transform="translate(159.74780606729703 160.33880855787982) rotate(533.7552470020951)"/><text x="84.164" y="3" fill="#000" font-family="sans-serif" font-size="8" pointer-events="none" text-anchor="middle" transform="translate(159.74780606729703 160.33880855787982) rotate(533.7552470020951) rotate(180 84.16400972849493 0)">KNOWS</text></g><g class="relationship"><path fill="#A5ABB6" stroke="none" d="M 40 0.5 L 59.47746019351143 0.5 L 59.47746019351143 -0.5 L 40 -0.5 Z M 104.59464769351143 0.5 L 124.07210788702287 0.5 L 124.07210788702287 3.5 L 131.07210788702287 0 L 124.07210788702287 -3.5 L 124.07210788702287 -0.5 L 104.59464769351143 -0.5 Z" class="outline" transform="translate(159.74780606729703 160.33880855787982) rotate(341.3499351220537)"/><text x="82.036" y="3" fill="#000" font-family="sans-serif" font-size="8" pointer-events="none" text-anchor="middle" transform="translate(159.74780606729703 160.33880855787982) rotate(341.3499351220537)">FOLLOWS</text></g></g><g class="layer nodes"><g class="node" transform="translate(-233.1332150933538,142.59609751555683)"><circle cx="0" cy="0" r="40" fill="#DA7194" stroke="#cc3c6c" stroke-width="2" class="outline"/><text y="5" fill="#FFF" font-family="sans-serif" font-size="10" pointer-events="none" text-anchor="middle">Alicia</text></g><g class="node" transform="translate(-12.890572194849142,30.972710883178905)"><circle cx="0" cy="0" r="40" fill="#569480" stroke="#447666" stroke-width="2" class="outline"/><text y="5" fill="#FFF" font-family="sans-serif" font-size="10" pointer-events="none" text-anchor="middle">Jonny</text></g><g class="node" transform="translate(-14.53987018796623,179.4102613670175)"><circle cx="0" cy="0" r="40" fill="#DA7194" stroke="#cc3c6c" stroke-width="2" class="outline"/><text y="5" fill="#FFF" font-family="sans-serif" font-size="10" pointer-events="none" text-anchor="middle">Jake</text></g><g class="node" transform="translate(185.39773338216366,49.24080014921137)"><circle cx="0" cy="0" r="40" fill="#569480" stroke="#447666" stroke-width="2" class="outline"/><text y="5" fill="#FFF" font-family="sans-serif" font-size="10" pointer-events="none" text-anchor="middle">Anthony</text></g><g class="node" transform="translate(159.74780606729703,160.33880855787982)"><circle cx="0" cy="0" r="40" fill="#ECB5C9" stroke="#da7298" stroke-width="2" class="outline"/><text y="5" fill="#604A0E" font-family="sans-serif" font-size="10" pointer-events="none" text-anchor="middle">Mark</text></g><g class="node" transform="translate(321.83680509776656,105.63211344467047)"><circle cx="0" cy="0" r="40" fill="#FFC454" stroke="#d7a013" stroke-width="2" class="outline"/><text y="5" fill="#604A0E" font-family="sans-serif" font-size="10" pointer-events="none" text-anchor="middle">Stefan</text></g></g></svg>