<svg xmlns="http://www.w3.org/2000/svg" width="743.531" height="295.057" viewBox="-341.56 -135.901 743.531 295.057"><title>Neo4j Graph Visualization</title><desc>Created using Neo4j (http://www.neo4j.com/)</desc><g class="layer relationships"><g class="relationship"><path fill="#A5ABB6" stroke="none" d="M 40 0.5 L 94.343890313271 0.5 L 94.343890313271 -0.5 L 40 -0.5 Z M 139.461077813271 0.5 L 193.804968126542 0.5 L 193.804968126542 3.5 L 200.804968126542 0 L 193.804968126542 -3.5 L 193.804968126542 -0.5 L 139.461077813271 -0.5 Z" class="outline" transform="translate(-297.5599905177341 -91.90109235615695) rotate(374.8656431738908)"/><text x="116.902" y="3" fill="#000" font-family="sans-serif" font-size="8" pointer-events="none" text-anchor="middle" transform="translate(-297.5599905177341 -91.90109235615695) rotate(374.8656431738908)">FOLLOWS</text></g><g class="relationship"><path fill="#A5ABB6" stroke="none" d="M 40 0.5 L 107.39539600114915 0.5 L 107.39539600114915 -0.5 L 40 -0.5 Z M 143.61805225114915 0.5 L 211.0134482522983 0.5 L 211.0134482522983 3.5 L 218.0134482522983 0 L 211.0134482522983 -3.5 L 211.0134482522983 -0.5 L 143.61805225114915 -0.5 Z" class="outline" transform="translate(-297.5599905177341 -91.90109235615695) rotate(413.3700829925349)"/><text x="125.507" y="3" fill="#000" font-family="sans-serif" font-size="8" pointer-events="none" text-anchor="middle" transform="translate(-297.5599905177341 -91.90109235615695) rotate(413.3700829925349)">KNOWS</text></g><g class="relationship"><path fill="#A5ABB6" stroke="none" d="M 40 0.5 L 73.71811172958947 0.5 L 73.71811172958947 -0.5 L 40 -0.5 Z M 109.94076797958947 0.5 L 143.65887970917893 0.5 L 143.65887970917893 3.5 L 150.65887970917893 0 L 143.65887970917893 -3.5 L 143.65887970917893 -0.5 L 109.94076797958947 -0.5 Z" class="outline" transform="translate(167.4036393602555 -62.90125638493785) rotate(361.7760445133592)"/><text x="91.829" y="3" fill="#000" font-family="sans-serif" font-size="8" pointer-events="none" text-anchor="middle" transform="translate(167.4036393602555 -62.90125638493785) rotate(361.7760445133592)">KNOWS</text></g><g class="relationship"><path fill="#A5ABB6" stroke="none" d="M 40 0.5 L 55.706864512150716 0.5 L 55.706864512150716 -0.5 L 40 -0.5 Z M 91.92952076215072 0.5 L 107.63638527430143 0.5 L 107.63638527430143 3.5 L 114.63638527430143 0 L 107.63638527430143 -3.5 L 107.63638527430143 -0.5 L 91.92952076215072 -0.5 Z" class="outline" transform="translate(167.4036393602555 -62.90125638493785) rotate(414.6156054134585)"/><text x="73.818" y="3" fill="#000" font-family="sans-serif" font-size="8" pointer-events="none" text-anchor="middle" transform="translate(167.4036393602555 -62.90125638493785) rotate(414.6156054134585)">KNOWS</text></g><g class="relationship"><path fill="#A5ABB6" stroke="none" d="M 40 0.5 L 64.04100783356434 0.5 L 64.04100783356434 -0.5 L 40 -0.5 Z M 100.26366408356434 0.5 L 124.30467191712867 0.5 L 124.30467191712867 3.5 L 131.30467191712867 0 L 124.30467191712867 -3.5 L 124.30467191712867 -0.5 L 100.26366408356434 -0.5 Z" class="outline" transform="translate(167.4036393602555 -62.90125638493785) rotate(490.5678222365244)"/><text x="82.152" y="3" fill="#000" font-family="sans-serif" font-size="8" pointer-events="none" text-anchor="middle" transform="translate(167.4036393602555 -62.90125638493785) rotate(490.5678222365244) rotate(180 82.15233595856434 0)">KNOWS</text></g><g class="relationship"><path fill="#A5ABB6" stroke="none" d="M 40 0.5 L 95.64892750284619 0.5 L 95.64892750284619 -0.5 L 40 -0.5 Z M 131.8715837528462 0.5 L 187.52051125569238 0.5 L 187.52051125569238 3.5 L 194.52051125569238 0 L 187.52051125569238 -3.5 L 187.52051125569238 -0.5 L 131.8715837528462 -0.5 Z" class="outline" transform="translate(167.4036393602555 -62.90125638493785) rotate(531.9653308716769)"/><text x="113.76" y="3" fill="#000" font-family="sans-serif" font-size="8" pointer-events="none" text-anchor="middle" transform="translate(167.4036393602555 -62.90125638493785) rotate(531.9653308716769) rotate(180 113.76025562784619 0)">KNOWS</text></g><g class="relationship"><path fill="#A5ABB6" stroke="none" d="M 40 0.5 L 76.58497077103821 0.5 L 76.58497077103821 -0.5 L 40 -0.5 Z M 121.70215827103821 0.5 L 158.28712904207643 0.5 L 158.28712904207643 3.5 L 165.28712904207643 0 L 158.28712904207643 -3.5 L 158.28712904207643 -0.5 L 121.70215827103821 -0.5 Z" class="outline" transform="translate(55.99603965738591 67.22805372266342) rotate(526.4985999258015)"/><text x="99.144" y="3" fill="#000" font-family="sans-serif" font-size="8" pointer-events="none" text-anchor="middle" transform="translate(55.99603965738591 67.22805372266342) rotate(526.4985999258015) rotate(180 99.14356452103821 0)">FOLLOWS</text></g></g><g class="layer nodes"><g class="node" transform="translate(357.97092767015283,-56.992192315930254)"><circle cx="0" cy="0" r="40" fill="#4C8EDA" stroke="#2870c2" stroke-width="2" class="outline"/><text y="5" fill="#FFF" font-family="sans-serif" font-size="10" pointer-events="none" text-anchor="middle">Praveena</text></g><g class="node" transform="translate(-297.5599905177341,-91.90109235615695)"><circle cx="0" cy="0" r="40" fill="#ECB5C9" stroke="#da7298" stroke-width="2" class="outline"/><text y="5" fill="#604A0E" font-family="sans-serif" font-size="10" pointer-events="none" text-anchor="middle">Mark</text></g><g class="node" transform="translate(167.4036393602555,-62.90125638493785)"><circle cx="0" cy="0" r="40" fill="#4C8EDA" stroke="#2870c2" stroke-width="2" class="outline"/><text y="5" fill="#FFF" font-family="sans-serif" font-size="10" pointer-events="none" text-anchor="middle">Zhen</text></g><g class="node" transform="translate(-143.6178185584481,115.15626001631747)"><circle cx="0" cy="0" r="40" fill="#DA7194" stroke="#cc3c6c" stroke-width="2" class="outline"/><text y="5" fill="#FFF" font-family="sans-serif" font-size="10" pointer-events="none" text-anchor="middle">Jake</text></g><g class="node" transform="translate(256.9472513032011,63.17155278069217)"><circle cx="0" cy="0" r="40" fill="#4C8EDA" stroke="#2870c2" stroke-width="2" class="outline"/><text y="5" fill="#FFF" font-family="sans-serif" font-size="10" pointer-events="none" text-anchor="middle">Martin</text></g><g class="node" transform="translate(55.99603965738591,67.22805372266342)"><circle cx="0" cy="0" r="40" fill="#ECB5C9" stroke="#da7298" stroke-width="2" class="outline"/><text y="5" fill="#604A0E" font-family="sans-serif" font-size="10" pointer-events="none" text-anchor="middle">Lju</text></g><g class="node" transform="translate(-64.81474237260423,-30.121790480149684)"><circle cx="0" cy="0" r="40" fill="#FFC454" stroke="#d7a013" stroke-width="2" class="outline"/><text y="5" fill="#604A0E" font-family="sans-serif" font-size="10" pointer-events="none" text-anchor="middle">Stefan</text></g></g></svg>