<svg xmlns="http://www.w3.org/2000/svg" width="459.558" height="206.549" viewBox="-114.604 -7.768 459.558 206.549"><title>Neo4j Graph Visualization</title><desc>Created using Neo4j (http://www.neo4j.com/)</desc><g class="layer relationships"><g class="relationship"><path fill="#A5ABB6" stroke="none" d="M 40 0.5 L 75.05921796977337 0.5 L 75.05921796977337 -0.5 L 40 -0.5 Z M 111.28187421977337 0.5 L 146.34109218954674 0.5 L 146.34109218954674 3.5 L 153.34109218954674 0 L 146.34109218954674 -3.5 L 146.34109218954674 -0.5 L 111.28187421977337 -0.5 Z" class="outline" transform="translate(148.2225127979758 36.23179234106762) rotate(397.8181621403604)"/><text x="93.171" y="3" fill="#000" font-family="sans-serif" font-size="8" pointer-events="none" text-anchor="middle" transform="translate(148.2225127979758 36.23179234106762) rotate(397.8181621403604)">KNOWS</text></g><g class="relationship"><path fill="#A5ABB6" stroke="none" d="M 40 0.5 L 90.10062262881635 0.5 L 90.10062262881635 -0.5 L 40 -0.5 Z M 126.32327887881635 0.5 L 176.4239015076327 0.5 L 176.4239015076327 3.5 L 183.4239015076327 0 L 176.4239015076327 -3.5 L 176.4239015076327 -0.5 L 126.32327887881635 -0.5 Z" class="outline" transform="translate(148.2225127979758 36.23179234106762) rotate(528.356384160596)"/><text x="108.212" y="3" fill="#000" font-family="sans-serif" font-size="8" pointer-events="none" text-anchor="middle" transform="translate(148.2225127979758 36.23179234106762) rotate(528.356384160596) rotate(180 108.21195075381635 0)">KNOWS</text></g></g><g class="layer nodes"><g class="node" transform="translate(300.95437496319676,154.780331803141)"><circle cx="0" cy="0" r="40" fill="#4C8EDA" stroke="#2870c2" stroke-width="2" class="outline"/><text y="5" fill="#FFF" font-family="sans-serif" font-size="10" pointer-events="none" text-anchor="middle">Praveena</text></g><g class="node" transform="translate(148.2225127979758,36.23179234106762)"><circle cx="0" cy="0" r="40" fill="#4C8EDA" stroke="#2870c2" stroke-width="2" class="outline"/><text y="5" fill="#FFF" font-family="sans-serif" font-size="10" pointer-events="none" text-anchor="middle">Zhen</text></g><g class="node" transform="translate(-70.60374870348929,81.32399834371036)"><circle cx="0" cy="0" r="40" fill="#4C8EDA" stroke="#2870c2" stroke-width="2" class="outline"/><text y="5" fill="#FFF" font-family="sans-serif" font-size="10" pointer-events="none" text-anchor="middle">Martin</text></g></g></svg>