<svg xmlns="http://www.w3.org/2000/svg" width="641.906" height="442.994" viewBox="-338.175 -82.959 641.906 442.994"><title>Neo4j Graph Visualization</title><desc>Created using Neo4j (http://www.neo4j.com/)</desc><g class="layer relationships"><g class="relationship"><path fill="#A5ABB6" stroke="none" d="M 40 0.5 L 54.692148683062086 0.5 L 54.692148683062086 -0.5 L 40 -0.5 Z M 99.80933618306209 0.5 L 114.50148486612417 0.5 L 114.50148486612417 3.5 L 121.50148486612417 0 L 114.50148486612417 -3.5 L 114.50148486612417 -0.5 L 99.80933618306209 -0.5 Z" class="outline" transform="translate(-294.1751131356668 118.45842224505157) rotate(353.0720392321683)"/><text x="77.251" y="3" fill="#000" font-family="sans-serif" font-size="8" pointer-events="none" text-anchor="middle" transform="translate(-294.1751131356668 118.45842224505157) rotate(353.0720392321683)">FOLLOWS</text></g><g class="relationship"><path fill="#A5ABB6" stroke="none" d="M 40 0.5 L 73.36793146843586 0.5 L 73.36793146843586 -0.5 L 40 -0.5 Z M 118.48511896843586 0.5 L 151.8530504368717 0.5 L 151.8530504368717 3.5 L 158.8530504368717 0 L 151.8530504368717 -3.5 L 151.8530504368717 -0.5 L 118.48511896843586 -0.5 Z" class="outline" transform="translate(-294.1751131356668 118.45842224505157) rotate(390.1563762833488)"/><text x="95.927" y="3" fill="#000" font-family="sans-serif" font-size="8" pointer-events="none" text-anchor="middle" transform="translate(-294.1751131356668 118.45842224505157) rotate(390.1563762833488)">FOLLOWS</text></g><g class="relationship"><path fill="#A5ABB6" stroke="none" d="M 40 0.5 L 88.47351576032383 0.5 L 88.47351576032383 -0.5 L 40 -0.5 Z M 124.69617201032383 0.5 L 173.16968777064767 0.5 L 173.16968777064767 3.5 L 180.16968777064767 0 L 173.16968777064767 -3.5 L 173.16968777064767 -0.5 L 124.69617201032383 -0.5 Z" class="outline" transform="translate(-294.1751131356668 118.45842224505157) rotate(314.35833564324804)"/><text x="106.585" y="3" fill="#000" font-family="sans-serif" font-size="8" pointer-events="none" text-anchor="middle" transform="translate(-294.1751131356668 118.45842224505157) rotate(314.35833564324804)">KNOWS</text></g><g class="relationship"><path fill="#A5ABB6" stroke="none" d="M 40 0.5 L 74.85238392790856 0.5 L 74.85238392790856 -0.5 L 40 -0.5 Z M 119.96957142790856 0.5 L 154.82195535581712 0.5 L 154.82195535581712 3.5 L 161.82195535581712 0 L 154.82195535581712 -3.5 L 154.82195535581712 -0.5 L 119.96957142790856 -0.5 Z" class="outline" transform="translate(-133.85281584988562 98.97790359249655) rotate(357.8338495820062)"/><text x="97.411" y="3" fill="#000" font-family="sans-serif" font-size="8" pointer-events="none" text-anchor="middle" transform="translate(-133.85281584988562 98.97790359249655) rotate(357.8338495820062)">FOLLOWS</text></g><g class="relationship"><path fill="#A5ABB6" stroke="none" d="M 40 0.5 L 90.84596613594705 0.5 L 90.84596613594705 -0.5 L 40 -0.5 Z M 135.96315363594704 0.5 L 186.8091197718941 0.5 L 186.8091197718941 3.5 L 193.8091197718941 0 L 186.8091197718941 -3.5 L 186.8091197718941 -0.5 L 135.96315363594704 -0.5 Z" class="outline" transform="translate(-133.85281584988562 98.97790359249655) rotate(387.49447266611304)"/><text x="113.405" y="3" fill="#000" font-family="sans-serif" font-size="8" pointer-events="none" text-anchor="middle" transform="translate(-133.85281584988562 98.97790359249655) rotate(387.49447266611304)">FOLLOWS</text></g><g class="relationship"><path fill="#A5ABB6" stroke="none" d="M 40 0.5 L 88.31980750308212 0.5 L 88.31980750308212 -0.5 L 40 -0.5 Z M 133.43699500308213 0.5 L 181.75680250616423 0.5 L 181.75680250616423 3.5 L 188.75680250616423 0 L 181.75680250616423 -3.5 L 181.75680250616423 -0.5 L 133.43699500308213 -0.5 Z" class="outline" transform="translate(-133.85281584988562 98.97790359249655) rotate(327.0603199082417)"/><text x="110.878" y="3" fill="#000" font-family="sans-serif" font-size="8" pointer-events="none" text-anchor="middle" transform="translate(-133.85281584988562 98.97790359249655) rotate(327.0603199082417)">FOLLOWS</text></g><g class="relationship"><path fill="#A5ABB6" stroke="none" d="M 40 0.5 L 90.86655990050184 0.5 L 90.86655990050184 -0.5 L 40 -0.5 Z M 127.08921615050184 0.5 L 177.95577605100368 0.5 L 177.95577605100368 3.5 L 184.95577605100368 0 L 177.95577605100368 -3.5 L 177.95577605100368 -0.5 L 127.08921615050184 -0.5 Z" class="outline" transform="translate(-122.23532382848569 218.35459094561395) rotate(385.7358385348895)"/><text x="108.978" y="3" fill="#000" font-family="sans-serif" font-size="8" pointer-events="none" text-anchor="middle" transform="translate(-122.23532382848569 218.35459094561395) rotate(385.7358385348895)">KNOWS</text></g><g class="relationship"><path fill="#A5ABB6" stroke="none" d="M 40 0.5 L 77.80710929066156 0.5 L 77.80710929066156 -0.5 L 40 -0.5 Z M 114.02976554066156 0.5 L 151.83687483132312 0.5 L 151.83687483132312 3.5 L 158.83687483132312 0 L 151.83687483132312 -3.5 L 151.83687483132312 -0.5 L 114.02976554066156 -0.5 Z" class="outline" transform="translate(58.129841149226635 -25.409933853153465) rotate(183.90719158856018)"/><text x="95.918" y="3" fill="#000" font-family="sans-serif" font-size="8" pointer-events="none" text-anchor="middle" transform="translate(58.129841149226635 -25.409933853153465) rotate(183.90719158856018) rotate(180 95.91843741566156 0)">KNOWS</text></g><g class="relationship"><path fill="#A5ABB6" stroke="none" d="M 40 0.5 L 70.83900391259168 0.5 L 70.83900391259168 -0.5 L 40 -0.5 Z M 115.95619141259168 0.5 L 146.79519532518336 0.5 L 146.79519532518336 3.5 L 153.79519532518336 0 L 146.79519532518336 -3.5 L 146.79519532518336 -0.5 L 115.95619141259168 -0.5 Z" class="outline" transform="translate(67.82492178072407 91.34954807872975) rotate(340.4616136741422)"/><text x="93.398" y="3" fill="#000" font-family="sans-serif" font-size="8" pointer-events="none" text-anchor="middle" transform="translate(67.82492178072407 91.34954807872975) rotate(340.4616136741422)">FOLLOWS</text></g><g class="relationship"><path fill="#A5ABB6" stroke="none" d="M 40 0.5 L 81.43056823223651 0.5 L 81.43056823223651 -0.5 L 40 -0.5 Z M 117.65322448223651 0.5 L 159.08379271447302 0.5 L 159.08379271447302 3.5 L 166.08379271447302 0 L 159.08379271447302 -3.5 L 159.08379271447302 -0.5 L 117.65322448223651 -0.5 Z" class="outline" transform="translate(67.82492178072407 91.34954807872975) rotate(381.3765100774636)"/><text x="99.542" y="3" fill="#000" font-family="sans-serif" font-size="8" pointer-events="none" text-anchor="middle" transform="translate(67.82492178072407 91.34954807872975) rotate(381.3765100774636)">KNOWS</text></g></g><g class="layer nodes"><g class="node" transform="translate(-294.1751131356668,118.45842224505157)"><circle cx="0" cy="0" r="40" fill="#DA7194" stroke="#cc3c6c" stroke-width="2" class="outline"/><text y="5" fill="#FFF" font-family="sans-serif" font-size="10" pointer-events="none" text-anchor="middle">Alicia</text></g><g class="node" transform="translate(-133.85281584988562,98.97790359249655)"><circle cx="0" cy="0" r="40" fill="#FFC454" stroke="#d7a013" stroke-width="2" class="outline"/><text y="5" fill="#604A0E" font-family="sans-serif" font-size="10" pointer-events="none" text-anchor="middle">Joe</text></g><g class="node" transform="translate(-122.23532382848569,218.35459094561395)"><circle cx="0" cy="0" r="40" fill="#569480" stroke="#447666" stroke-width="2" class="outline"/><text y="5" fill="#FFF" font-family="sans-serif" font-size="10" pointer-events="none" text-anchor="middle">Jonny</text></g><g class="node" transform="translate(-140.24488387613974,-38.958781176728)"><circle cx="0" cy="0" r="40" fill="#DA7194" stroke="#cc3c6c" stroke-width="2" class="outline"/><text y="5" fill="#FFF" font-family="sans-serif" font-size="10" pointer-events="none" text-anchor="middle">Jake</text></g><g class="node" transform="translate(67.82492178072407,91.34954807872975)"><circle cx="0" cy="0" r="40" fill="#4C8EDA" stroke="#2870c2" stroke-width="2" class="outline"/><text y="5" fill="#FFF" font-family="sans-serif" font-size="10" pointer-events="none" text-anchor="middle">Zhen</text></g><g class="node" transform="translate(73.54882033872477,206.91893283900325)"><circle cx="0" cy="0" r="40" fill="#4C8EDA" stroke="#2870c2" stroke-width="2" class="outline"/><text y="5" fill="#FFF" font-family="sans-serif" font-size="10" pointer-events="none" text-anchor="middle">Praveena</text></g><g class="node" transform="translate(58.129841149226635,-25.409933853153465)"><circle cx="0" cy="0" r="40" fill="#ECB5C9" stroke="#da7298" stroke-width="2" class="outline"/><text y="5" fill="#604A0E" font-family="sans-serif" font-size="10" pointer-events="none" text-anchor="middle">Mark</text></g><g class="node" transform="translate(80.40609699324229,316.03547825761916)"><circle cx="0" cy="0" r="40" fill="#569480" stroke="#447666" stroke-width="2" class="outline"/><text y="5" fill="#FFF" font-family="sans-serif" font-size="10" pointer-events="none" text-anchor="middle">Anthony</text></g><g class="node" transform="translate(250.46093234718546,26.537007814569648)"><circle cx="0" cy="0" r="40" fill="#DA7194" stroke="#cc3c6c" stroke-width="2" class="outline"/><text y="5" fill="#FFF" font-family="sans-serif" font-size="10" pointer-events="none" text-anchor="middle">John</text></g><g class="node" transform="translate(259.7312476770512,166.46606890174553)"><circle cx="0" cy="0" r="40" fill="#4C8EDA" stroke="#2870c2" stroke-width="2" class="outline"/><text y="5" fill="#FFF" font-family="sans-serif" font-size="10" pointer-events="none" text-anchor="middle">Martin</text></g></g></svg>