<svg xmlns="http://www.w3.org/2000/svg" width="477.994" height="266.53" viewBox="-85.467 -51.747 477.994 266.53"><title>Neo4j Graph Visualization</title><desc>Created using Neo4j (http://www.neo4j.com/)</desc><g class="layer relationships"><g class="relationship"><path fill="#A5ABB6" stroke="none" d="M 40 0.5 L 90.98605598771624 0.5 L 90.98605598771624 -0.5 L 40 -0.5 Z M 136.10324348771624 0.5 L 187.08929947543248 0.5 L 187.08929947543248 3.5 L 194.08929947543248 0 L 187.08929947543248 -3.5 L 187.08929947543248 -0.5 L 136.10324348771624 -0.5 Z" class="outline" transform="translate(-41.46662501271018 102.63133504846832) rotate(376.92576217094523)"/><text x="113.545" y="3" fill="#000" font-family="sans-serif" font-size="8" pointer-events="none" text-anchor="middle" transform="translate(-41.46662501271018 102.63133504846832) rotate(376.92576217094523)">FOLLOWS</text></g><g class="relationship"><path fill="#A5ABB6" stroke="none" d="M 40 0.5 L 87.90810107961802 0.5 L 87.90810107961802 -0.5 L 40 -0.5 Z M 124.13075732961802 0.5 L 172.03885840923604 0.5 L 172.03885840923604 3.5 L 179.03885840923604 0 L 172.03885840923604 -3.5 L 172.03885840923604 -0.5 L 124.13075732961802 -0.5 Z" class="outline" transform="translate(-41.46662501271018 102.63133504846832) rotate(329.7401248126098)"/><text x="106.019" y="3" fill="#000" font-family="sans-serif" font-size="8" pointer-events="none" text-anchor="middle" transform="translate(-41.46662501271018 102.63133504846832) rotate(329.7401248126098)">KNOWS</text></g><g class="relationship"><path fill="#A5ABB6" stroke="none" d="M 40 0.5 L 85.7765722444218 0.5 L 85.7765722444218 -0.5 L 40 -0.5 Z M 121.9992284944218 0.5 L 167.7758007388436 0.5 L 167.7758007388436 3.5 L 174.7758007388436 0 L 167.7758007388436 -3.5 L 167.7758007388436 -0.5 L 121.9992284944218 -0.5 Z" class="outline" transform="translate(348.5270722763276 68.46508514201719) rotate(200.78403585129422)"/><text x="103.888" y="3" fill="#000" font-family="sans-serif" font-size="8" pointer-events="none" text-anchor="middle" transform="translate(348.5270722763276 68.46508514201719) rotate(200.78403585129422) rotate(180 103.8879003694218 0)">KNOWS</text></g></g><g class="layer nodes"><g class="node" transform="translate(-41.46662501271018,102.63133504846832)"><circle cx="0" cy="0" r="40" fill="#DA7194" stroke="#cc3c6c" stroke-width="2" class="outline"/><text y="5" fill="#FFF" font-family="sans-serif" font-size="10" pointer-events="none" text-anchor="middle">Alicia</text></g><g class="node" transform="translate(182.48257620339928,170.78231012267565)"><circle cx="0" cy="0" r="40" fill="#FFC454" stroke="#d7a013" stroke-width="2" class="outline"/><text y="5" fill="#604A0E" font-family="sans-serif" font-size="10" pointer-events="none" text-anchor="middle">Joe</text></g><g class="node" transform="translate(147.72789644365002,-7.7473519527830135)"><circle cx="0" cy="0" r="40" fill="#DA7194" stroke="#cc3c6c" stroke-width="2" class="outline"/><text y="5" fill="#FFF" font-family="sans-serif" font-size="10" pointer-events="none" text-anchor="middle">Jake</text></g><g class="node" transform="translate(348.5270722763276,68.46508514201719)"><circle cx="0" cy="0" r="40" fill="#ECB5C9" stroke="#da7298" stroke-width="2" class="outline"/><text y="5" fill="#604A0E" font-family="sans-serif" font-size="10" pointer-events="none" text-anchor="middle">Mark</text></g></g></svg>