<svg xmlns="http://www.w3.org/2000/svg" width="927.904" height="505.925" viewBox="-375.455 -178.825 927.904 505.925"><title>Neo4j Graph Visualization</title><desc>Created using Neo4j (http://www.neo4j.com/)</desc><g class="layer relationships"><g class="relationship"><path fill="#A5ABB6" stroke="none" d="M 40 0.5 L 62.032584332113075 0.5 L 62.032584332113075 -0.5 L 40 -0.5 Z M 110.29820933211307 0.5 L 132.33079366422615 0.5 L 132.33079366422615 3.5 L 139.33079366422615 0 L 132.33079366422615 -3.5 L 132.33079366422615 -0.5 L 110.29820933211307 -0.5 Z" class="outline" transform="translate(276.341599955627 85.84065682894895) rotate(487.4062011271007)"/><text x="86.165" y="3" fill="#000" font-family="sans-serif" font-size="8" pointer-events="none" text-anchor="middle" transform="translate(276.341599955627 85.84065682894895) rotate(487.4062011271007) rotate(180 86.16539683211307 0)">0.17967656</text></g><g class="relationship"><path fill="#A5ABB6" stroke="none" d="M 40 0.5 L 89.32271433011789 0.5 L 89.32271433011789 -0.5 L 40 -0.5 Z M 137.5883393301179 0.5 L 186.91105366023578 0.5 L 186.91105366023578 3.5 L 193.91105366023578 0 L 186.91105366023578 -3.5 L 186.91105366023578 -0.5 L 137.5883393301179 -0.5 Z" class="outline" transform="translate(276.341599955627 85.84065682894895) rotate(367.11990248680655)"/><text x="113.456" y="3" fill="#000" font-family="sans-serif" font-size="8" pointer-events="none" text-anchor="middle" transform="translate(276.341599955627 85.84065682894895) rotate(367.11990248680655)">0.16441391</text></g><g class="relationship"><path fill="#A5ABB6" stroke="none" d="M 40 0.5 L 84.86774621415236 0.5 L 84.86774621415236 -0.5 L 40 -0.5 Z M 124.23493371415236 0.5 L 169.10267992830472 0.5 L 169.10267992830472 3.5 L 176.10267992830472 0 L 169.10267992830472 -3.5 L 169.10267992830472 -0.5 L 124.23493371415236 -0.5 Z" class="outline" transform="translate(276.341599955627 85.84065682894895) rotate(249.8980756659344)"/><text x="104.551" y="3" fill="#000" font-family="sans-serif" font-size="8" pointer-events="none" text-anchor="middle" transform="translate(276.341599955627 85.84065682894895) rotate(249.8980756659344) rotate(180 104.55133996415236 0)">0.143287</text></g><g class="relationship"><path fill="#A5ABB6" stroke="none" d="M 40 0.5 L 71.7911167278609 0.5 L 71.7911167278609 -0.5 L 40 -0.5 Z M 120.0567417278609 0.5 L 151.8478584557218 0.5 L 151.8478584557218 3.5 L 158.8478584557218 0 L 151.8478584557218 -3.5 L 151.8478584557218 -0.5 L 120.0567417278609 -0.5 Z" class="outline" transform="translate(276.341599955627 85.84065682894895) rotate(284.0456407665098)"/><text x="95.924" y="3" fill="#000" font-family="sans-serif" font-size="8" pointer-events="none" text-anchor="middle" transform="translate(276.341599955627 85.84065682894895) rotate(284.0456407665098)">0.13336793</text></g><g class="relationship"><path fill="#A5ABB6" stroke="none" d="M 40 0.5 L 74.17979013955436 0.5 L 74.17979013955436 -0.5 L 40 -0.5 Z M 121.25791513955436 0.5 L 155.4377052791087 0.5 L 155.4377052791087 3.5 L 162.4377052791087 0 L 155.4377052791087 -3.5 L 155.4377052791087 -0.5 L 121.25791513955436 -0.5 Z" class="outline" transform="translate(276.341599955627 85.84065682894895) rotate(525.6902867124791)"/><text x="97.719" y="3" fill="#000" font-family="sans-serif" font-size="8" pointer-events="none" text-anchor="middle" transform="translate(276.341599955627 85.84065682894895) rotate(525.6902867124791) rotate(180 97.71885263955436 0)">0.12601112</text></g><g class="relationship"><path fill="#A5ABB6" stroke="none" d="M 40 0.5 L 91.20067400541015 0.5 L 91.20067400541015 -0.5 L 40 -0.5 Z M 139.46629900541015 0.5 L 190.6669730108203 0.5 L 190.6669730108203 3.5 L 197.6669730108203 0 L 190.6669730108203 -3.5 L 190.6669730108203 -0.5 L 139.46629900541015 -0.5 Z" class="outline" transform="translate(276.341599955627 85.84065682894895) rotate(398.4756867536059)"/><text x="115.333" y="3" fill="#000" font-family="sans-serif" font-size="8" pointer-events="none" text-anchor="middle" transform="translate(276.341599955627 85.84065682894895) rotate(398.4756867536059)">0.08861496</text></g><g class="relationship"><path fill="#A5ABB6" stroke="none" d="M 40 0.5 L 85.51444611589507 0.5 L 85.51444611589507 -0.5 L 40 -0.5 Z M 129.33085236589505 0.5 L 174.84529848179014 0.5 L 174.84529848179014 3.5 L 181.84529848179014 0 L 174.84529848179014 -3.5 L 174.84529848179014 -0.5 L 129.33085236589505 -0.5 Z" class="outline" transform="translate(276.341599955627 85.84065682894895) rotate(201.68923601585175)"/><text x="107.423" y="3" fill="#000" font-family="sans-serif" font-size="8" pointer-events="none" text-anchor="middle" transform="translate(276.341599955627 85.84065682894895) rotate(201.68923601585175) rotate(180 107.42264924089507 0)">0.0603245</text></g><g class="relationship"><path fill="#A5ABB6" stroke="none" d="M 40 0.5 L 70.41592812331186 0.5 L 70.41592812331186 -0.5 L 40 -0.5 Z M 123.13077187331186 0.5 L 153.54669999662372 0.5 L 153.54669999662372 3.5 L 160.54669999662372 0 L 153.54669999662372 -3.5 L 153.54669999662372 -0.5 L 123.13077187331186 -0.5 Z" class="outline" transform="translate(276.341599955627 85.84065682894895) rotate(439.6122671037076)"/><text x="96.773" y="3" fill="#000" font-family="sans-serif" font-size="8" pointer-events="none" text-anchor="middle" transform="translate(276.341599955627 85.84065682894895) rotate(439.6122671037076)">0.034420907</text></g><g class="relationship"><path fill="#A5ABB6" stroke="none" d="M 40 0.5 L 94.68396215615705 0.5 L 94.68396215615705 -0.5 L 40 -0.5 Z M 147.39880590615707 0.5 L 202.0827680623141 0.5 L 202.0827680623141 3.5 L 209.0827680623141 0 L 202.0827680623141 -3.5 L 202.0827680623141 -0.5 L 147.39880590615707 -0.5 Z" class="outline" transform="translate(276.341599955627 85.84065682894895) rotate(330.4731794100556)"/><text x="121.041" y="3" fill="#000" font-family="sans-serif" font-size="8" pointer-events="none" text-anchor="middle" transform="translate(276.341599955627 85.84065682894895) rotate(330.4731794100556)">0.029095741</text></g><g class="relationship"><path fill="#A5ABB6" stroke="none" d="M 40 0.5 L 113.67587205303755 0.5 L 113.67587205303755 -0.5 L 40 -0.5 Z M 166.39071580303755 0.5 L 240.0665878560751 0.5 L 240.0665878560751 3.5 L 247.0665878560751 0 L 240.0665878560751 -3.5 L 240.0665878560751 -0.5 L 166.39071580303755 -0.5 Z" class="outline" transform="translate(276.341599955627 85.84065682894895) rotate(309.763554423355)"/><text x="140.033" y="3" fill="#000" font-family="sans-serif" font-size="8" pointer-events="none" text-anchor="middle" transform="translate(276.341599955627 85.84065682894895) rotate(309.763554423355)">0.020393685</text></g><g class="relationship"><path fill="#A5ABB6" stroke="none" d="M 40 0.5 L 119.59721448513534 0.5 L 119.59721448513534 -0.5 L 40 -0.5 Z M 172.31205823513534 0.5 L 251.90927272027068 0.5 L 251.90927272027068 3.5 L 258.9092727202707 0 L 251.90927272027068 -3.5 L 251.90927272027068 -0.5 L 172.31205823513534 -0.5 Z" class="outline" transform="translate(276.341599955627 85.84065682894895) rotate(221.53871419863765)"/><text x="145.955" y="3" fill="#000" font-family="sans-serif" font-size="8" pointer-events="none" text-anchor="middle" transform="translate(276.341599955627 85.84065682894895) rotate(221.53871419863765) rotate(180 145.95463636013534 0)">0.020393685</text></g><g class="relationship"><path fill="#A5ABB6" stroke="none" d="M 40 0.5 L 75.545353285011 0.5 L 75.545353285011 -0.5 L 40 -0.5 Z M 123.810978285011 0.5 L 159.356331570022 0.5 L 159.356331570022 3.5 L 166.356331570022 0 L 159.356331570022 -3.5 L 159.356331570022 -0.5 L 123.810978285011 -0.5 Z" class="outline" transform="translate(-205.41774064710762 43.477474819634324) rotate(232.3542880681298)"/><text x="99.678" y="3" fill="#000" font-family="sans-serif" font-size="8" pointer-events="none" text-anchor="middle" transform="translate(-205.41774064710762 43.477474819634324) rotate(232.3542880681298) rotate(180 99.678165785011 0)">0.76108575</text></g><g class="relationship"><path fill="#A5ABB6" stroke="none" d="M 40 0.5 L 122.45569693474613 0.5 L 122.45569693474613 -0.5 L 40 -0.5 Z M 170.72132193474613 0.5 L 253.17701886949226 0.5 L 253.17701886949226 3.5 L 260.17701886949226 0 L 253.17701886949226 -3.5 L 253.17701886949226 -0.5 L 170.72132193474613 -0.5 Z" class="outline" transform="translate(-205.41774064710762 43.477474819634324) rotate(377.92747333374433)"/><text x="146.589" y="3" fill="#000" font-family="sans-serif" font-size="8" pointer-events="none" text-anchor="middle" transform="translate(-205.41774064710762 43.477474819634324) rotate(377.92747333374433)">0.07424594</text></g><g class="relationship"><path fill="#A5ABB6" stroke="none" d="M 40 0.5 L 53.4513981016885 0.5 L 53.4513981016885 -0.5 L 40 -0.5 Z M 101.7170231016885 0.5 L 115.168421203377 0.5 L 115.168421203377 3.5 L 122.168421203377 0 L 115.168421203377 -3.5 L 115.168421203377 -0.5 L 101.7170231016885 -0.5 Z" class="outline" transform="translate(-205.41774064710762 43.477474819634324) rotate(499.93083090428786)"/><text x="77.584" y="3" fill="#000" font-family="sans-serif" font-size="8" pointer-events="none" text-anchor="middle" transform="translate(-205.41774064710762 43.477474819634324) rotate(499.93083090428786) rotate(180 77.5842106016885 0)">0.07299799</text></g><g class="relationship"><path fill="#A5ABB6" stroke="none" d="M 40 0.5 L 56.26011785557918 0.5 L 56.26011785557918 -0.5 L 40 -0.5 Z M 108.38121160557918 0.5 L 124.64132946115836 0.5 L 124.64132946115836 3.5 L 131.64132946115836 0 L 124.64132946115836 -3.5 L 124.64132946115836 -0.5 L 108.38121160557918 -0.5 Z" class="outline" transform="translate(-205.41774064710762 43.477474819634324) rotate(451.49497964799343)"/><text x="82.321" y="3" fill="#000" font-family="sans-serif" font-size="8" pointer-events="none" text-anchor="middle" transform="translate(-205.41774064710762 43.477474819634324) rotate(451.49497964799343) rotate(180 82.32066473057918 0)">0.038113687</text></g><g class="relationship"><path fill="#A5ABB6" stroke="none" d="M 40 0.5 L 65.939422132249 0.5 L 65.939422132249 -0.5 L 40 -0.5 Z M 118.654265882249 0.5 L 144.593688014498 0.5 L 144.593688014498 3.5 L 151.593688014498 0 L 144.593688014498 -3.5 L 144.593688014498 -0.5 L 118.654265882249 -0.5 Z" class="outline" transform="translate(-205.41774064710762 43.477474819634324) rotate(300.3117344914458)"/><text x="92.297" y="3" fill="#000" font-family="sans-serif" font-size="8" pointer-events="none" text-anchor="middle" transform="translate(-205.41774064710762 43.477474819634324) rotate(300.3117344914458)">0.015900765</text></g><g class="relationship"><path fill="#A5ABB6" stroke="none" d="M 40 0.5 L 116.71714913001765 0.5 L 116.71714913001765 -0.5 L 40 -0.5 Z M 169.43199288001765 0.5 L 246.1491420100353 0.5 L 246.1491420100353 3.5 L 253.1491420100353 0 L 246.1491420100353 -3.5 L 246.1491420100353 -0.5 L 169.43199288001765 -0.5 Z" class="outline" transform="translate(-205.41774064710762 43.477474819634324) rotate(399.46984643706054)"/><text x="143.075" y="3" fill="#000" font-family="sans-serif" font-size="8" pointer-events="none" text-anchor="middle" transform="translate(-205.41774064710762 43.477474819634324) rotate(399.46984643706054)">0.012772448</text></g></g><g class="layer nodes"><g class="node" transform="translate(276.341599955627,85.84065682894895)"><circle cx="0" cy="0" r="40" fill="#F79767" stroke="#f36924" stroke-width="2" class="outline"/><text y="5" fill="#FFF" font-family="sans-serif" font-size="10" pointer-events="none" text-anchor="middle">https://neo4j.co…</text></g><g class="node" transform="translate(167.40499042043223,228.29187184383667)"><circle cx="0" cy="0" r="40" fill="#DA7194" stroke="#cc3c6c" stroke-width="2" class="outline"/><text y="5" fill="#FFF" font-family="sans-serif" font-size="10" pointer-events="none" text-anchor="middle">card games</text></g><g class="node" transform="translate(508.4489522239784,114.83303595549052)"><circle cx="0" cy="0" r="40" fill="#DA7194" stroke="#cc3c6c" stroke-width="2" class="outline"/><text y="0" fill="#FFF" font-family="sans-serif" font-size="10" pointer-events="none" text-anchor="middle">role playing</text><text y="10" fill="#FFF" font-family="sans-serif" font-size="10" pointer-events="none" text-anchor="middle">games</text></g><g class="node" transform="translate(202.0690030520608,-117.09763335157783)"><circle cx="0" cy="0" r="40" fill="#DA7194" stroke="#cc3c6c" stroke-width="2" class="outline"/><text y="5" fill="#FFF" font-family="sans-serif" font-size="10" pointer-events="none" text-anchor="middle">Switch</text></g><g class="node" transform="translate(324.6009289712823,-107.0621891204706)"><circle cx="0" cy="0" r="40" fill="#DA7194" stroke="#cc3c6c" stroke-width="2" class="outline"/><text y="5" fill="#FFF" font-family="sans-serif" font-size="10" pointer-events="none" text-anchor="middle">friends</text></g><g class="node" transform="translate(80.18475849590942,135.87582513303792)"><circle cx="0" cy="0" r="40" fill="#DA7194" stroke="#cc3c6c" stroke-width="2" class="outline"/><text y="5" fill="#FFF" font-family="sans-serif" font-size="10" pointer-events="none" text-anchor="middle">Nintendo</text></g><g class="node" transform="translate(462.4044774166494,233.7128844142888)"><circle cx="0" cy="0" r="40" fill="#DA7194" stroke="#cc3c6c" stroke-width="2" class="outline"/><text y="5" fill="#FFF" font-family="sans-serif" font-size="10" pointer-events="none" text-anchor="middle">board games</text></g><g class="node" transform="translate(70.20250084755335,3.852802378510006)"><circle cx="0" cy="0" r="40" fill="#DA7194" stroke="#cc3c6c" stroke-width="2" class="outline"/><text y="5" fill="#FFF" font-family="sans-serif" font-size="10" pointer-events="none" text-anchor="middle">tournaments</text></g><g class="node" transform="translate(312.50188607032646,283.1004159985243)"><circle cx="0" cy="0" r="40" fill="#DA7194" stroke="#cc3c6c" stroke-width="2" class="outline"/><text y="5" fill="#FFF" font-family="sans-serif" font-size="10" pointer-events="none" text-anchor="middle">offices</text></g><g class="node" transform="translate(493.07476677476717,-36.91503446938273)"><circle cx="0" cy="0" r="40" fill="#DA7194" stroke="#cc3c6c" stroke-width="2" class="outline"/><text y="5" fill="#FFF" font-family="sans-serif" font-size="10" pointer-events="none" text-anchor="middle">Mario Kart 8</text></g><g class="node" transform="translate(459.95538018939754,-134.82471329421807)"><circle cx="0" cy="0" r="40" fill="#DA7194" stroke="#cc3c6c" stroke-width="2" class="outline"/><text y="5" fill="#FFF" font-family="sans-serif" font-size="10" pointer-events="none" text-anchor="middle">European</text></g><g class="node" transform="translate(52.605670671094146,-112.37384129202022)"><circle cx="0" cy="0" r="40" fill="#DA7194" stroke="#cc3c6c" stroke-width="2" class="outline"/><text y="5" fill="#FFF" font-family="sans-serif" font-size="10" pointer-events="none" text-anchor="middle">Neo4j</text></g><g class="node" transform="translate(-205.41774064710762,43.477474819634324)"><circle cx="0" cy="0" r="40" fill="#F79767" stroke="#f36924" stroke-width="2" class="outline"/><text y="5" fill="#FFF" font-family="sans-serif" font-size="10" pointer-events="none" text-anchor="middle">https://en.wikip…</text></g><g class="node" transform="translate(-331.4554576882501,-119.91600565646597)"><circle cx="0" cy="0" r="40" fill="#DA7194" stroke="#cc3c6c" stroke-width="2" class="outline"/><text y="5" fill="#FFF" font-family="sans-serif" font-size="10" pointer-events="none" text-anchor="middle">Nintendo Switch</text></g><g class="node" transform="translate(-329.5200267488917,147.86722249586361)"><circle cx="0" cy="0" r="40" fill="#DA7194" stroke="#cc3c6c" stroke-width="2" class="outline"/><text y="5" fill="#FFF" font-family="sans-serif" font-size="10" pointer-events="none" text-anchor="middle">Joy-Con Wheel</text></g><g class="node" transform="translate(-209.8957524920465,215.06038011357816)"><circle cx="0" cy="0" r="40" fill="#DA7194" stroke="#cc3c6c" stroke-width="2" class="outline"/><text y="5" fill="#FFF" font-family="sans-serif" font-size="10" pointer-events="none" text-anchor="middle">regions</text></g><g class="node" transform="translate(-108.71955536196342,-121.92386208414261)"><circle cx="0" cy="0" r="40" fill="#DA7194" stroke="#cc3c6c" stroke-width="2" class="outline"/><text y="5" fill="#FFF" font-family="sans-serif" font-size="10" pointer-events="none" text-anchor="middle">home console</text></g><g class="node" transform="translate(20.881445615049643,229.82418865785925)"><circle cx="0" cy="0" r="40" fill="#DA7194" stroke="#cc3c6c" stroke-width="2" class="outline"/><text y="5" fill="#FFF" font-family="sans-serif" font-size="10" pointer-events="none" text-anchor="middle">device</text></g></g></svg>