<svg xmlns="http://www.w3.org/2000/svg" width="533.897" height="226.208" viewBox="-173.347 -6.215 533.897 226.208"><title>Neo4j Graph Visualization</title><desc>Created using Neo4j (http://www.neo4j.com/)</desc><g class="layer relationships"><g class="relationship"><path fill="#A5ABB6" stroke="none" d="M 40 0.5 L 105.31077430962755 0.5 L 105.31077430962755 -0.5 L 40 -0.5 Z M 141.53343055962756 0.5 L 206.8442048692551 0.5 L 206.8442048692551 3.5 L 213.8442048692551 0 L 206.8442048692551 -3.5 L 206.8442048692551 -0.5 L 141.53343055962756 -0.5 Z" class="outline" transform="translate(93.61823771971044 165.41181228888118) rotate(331.4287039134232)"/><text x="123.422" y="3" fill="#000" font-family="sans-serif" font-size="8" pointer-events="none" text-anchor="middle" transform="translate(93.61823771971044 165.41181228888118) rotate(331.4287039134232)">KNOWS</text></g><g class="relationship"><path fill="#A5ABB6" stroke="none" d="M 40 0.5 L 88.27697168849136 0.5 L 88.27697168849136 -0.5 L 40 -0.5 Z M 133.39415918849136 0.5 L 181.67113087698272 0.5 L 181.67113087698272 3.5 L 188.67113087698272 0 L 181.67113087698272 -3.5 L 181.67113087698272 -0.5 L 133.39415918849136 -0.5 Z" class="outline" transform="translate(99.20950348821279 45.010382196973694) rotate(181.81073821662187)"/><text x="110.836" y="3" fill="#000" font-family="sans-serif" font-size="8" pointer-events="none" text-anchor="middle" transform="translate(99.20950348821279 45.010382196973694) rotate(181.81073821662187) rotate(180 110.83556543849136 0)">FOLLOWS</text></g><g class="relationship"><path fill="#A5ABB6" stroke="none" d="M 40 0.5 L 80.08167984243276 0.5 L 80.08167984243276 -0.5 L 40 -0.5 Z M 116.30433609243276 0.5 L 156.38601593486553 0.5 L 156.38601593486553 3.5 L 163.38601593486553 0 L 156.38601593486553 -3.5 L 156.38601593486553 -0.5 L 116.30433609243276 -0.5 Z" class="outline" transform="translate(99.20950348821279 45.010382196973694) rotate(499.9087246184954)"/><text x="98.193" y="3" fill="#000" font-family="sans-serif" font-size="8" pointer-events="none" text-anchor="middle" transform="translate(99.20950348821279 45.010382196973694) rotate(499.9087246184954) rotate(180 98.19300796743276 0)">KNOWS</text></g></g><g class="layer nodes"><g class="node" transform="translate(93.61823771971044,165.41181228888118)"><circle cx="0" cy="0" r="40" fill="#569480" stroke="#447666" stroke-width="2" class="outline"/><text y="5" fill="#FFF" font-family="sans-serif" font-size="10" pointer-events="none" text-anchor="middle">Jonny</text></g><g class="node" transform="translate(-56.3847596227855,175.99242968747072)"><circle cx="0" cy="0" r="40" fill="#DA7194" stroke="#cc3c6c" stroke-width="2" class="outline"/><text y="5" fill="#FFF" font-family="sans-serif" font-size="10" pointer-events="none" text-anchor="middle">Jake</text></g><g class="node" transform="translate(316.54997542777335,44.01032684423025)"><circle cx="0" cy="0" r="40" fill="#569480" stroke="#447666" stroke-width="2" class="outline"/><text y="5" fill="#FFF" font-family="sans-serif" font-size="10" pointer-events="none" text-anchor="middle">Anthony</text></g><g class="node" transform="translate(99.20950348821279,45.010382196973694)"><circle cx="0" cy="0" r="40" fill="#ECB5C9" stroke="#da7298" stroke-width="2" class="outline"/><text y="5" fill="#604A0E" font-family="sans-serif" font-size="10" pointer-events="none" text-anchor="middle">Mark</text></g><g class="node" transform="translate(-129.34744180739528,37.784812759304266)"><circle cx="0" cy="0" r="40" fill="#FFC454" stroke="#d7a013" stroke-width="2" class="outline"/><text y="5" fill="#604A0E" font-family="sans-serif" font-size="10" pointer-events="none" text-anchor="middle">Stefan</text></g></g></svg>