<svg xmlns="http://www.w3.org/2000/svg" width="449.799" height="313.81" viewBox="-226.428 -58.368 449.799 313.81"><title>Neo4j Graph Visualization</title><desc>Created using Neo4j (http://www.neo4j.com/)</desc><g class="layer relationships"><g class="relationship"><path fill="#A5ABB6" stroke="none" d="M 40 0.5 L 82.85893650778738 0.5 L 82.85893650778738 -0.5 L 40 -0.5 Z M 119.08159275778738 0.5 L 161.94052926557475 0.5 L 161.94052926557475 3.5 L 168.94052926557475 0 L 161.94052926557475 -3.5 L 161.94052926557475 -0.5 L 119.08159275778738 -0.5 Z" class="outline" transform="translate(21.412243378148858 116.21054179319287) rotate(527.3143810766192)"/><text x="100.97" y="3" fill="#000" font-family="sans-serif" font-size="8" pointer-events="none" text-anchor="middle" transform="translate(21.412243378148858 116.21054179319287) rotate(527.3143810766192) rotate(180 100.97026463278738 0)">KNOWS</text></g><g class="relationship"><path fill="#A5ABB6" stroke="none" d="M 40 0.5 L 59.48933049375745 0.5 L 59.48933049375745 -0.5 L 40 -0.5 Z M 95.71198674375745 0.5 L 115.2013172375149 0.5 L 115.2013172375149 3.5 L 122.2013172375149 0 L 115.2013172375149 -3.5 L 115.2013172375149 -0.5 L 95.71198674375745 -0.5 Z" class="outline" transform="translate(21.412243378148858 116.21054179319287) rotate(395.95283167029515)"/><text x="77.601" y="3" fill="#000" font-family="sans-serif" font-size="8" pointer-events="none" text-anchor="middle" transform="translate(21.412243378148858 116.21054179319287) rotate(395.95283167029515)">KNOWS</text></g><g class="relationship"><path fill="#A5ABB6" stroke="none" d="M 40 0.5 L 58.17536681933433 0.5 L 58.17536681933433 -0.5 L 40 -0.5 Z M 94.39802306933433 0.5 L 112.57338988866866 0.5 L 112.57338988866866 3.5 L 119.57338988866866 0 L 112.57338988866866 -3.5 L 112.57338988866866 -0.5 L 94.39802306933433 -0.5 Z" class="outline" transform="translate(21.412243378148858 116.21054179319287) rotate(351.84351014032586)"/><text x="76.287" y="3" fill="#000" font-family="sans-serif" font-size="8" pointer-events="none" text-anchor="middle" transform="translate(21.412243378148858 116.21054179319287) rotate(351.84351014032586)">KNOWS</text></g><g class="relationship"><path fill="#A5ABB6" stroke="none" d="M 40 0.5 L 60.99796395859309 0.5 L 60.99796395859309 -0.5 L 40 -0.5 Z M 97.22062020859309 0.5 L 118.21858416718618 0.5 L 118.21858416718618 3.5 L 125.21858416718618 0 L 118.21858416718618 -3.5 L 118.21858416718618 -0.5 L 97.22062020859309 -0.5 Z" class="outline" transform="translate(21.412243378148858 116.21054179319287) rotate(307.78302442565086)"/><text x="79.109" y="3" fill="#000" font-family="sans-serif" font-size="8" pointer-events="none" text-anchor="middle" transform="translate(21.412243378148858 116.21054179319287) rotate(307.78302442565086)">KNOWS</text></g></g><g class="layer nodes"><g class="node" transform="translate(-182.4279836289128,162.09416222018248)"><circle cx="0" cy="0" r="40" fill="#4C8EDA" stroke="#2870c2" stroke-width="2" class="outline"/><text y="5" fill="#FFF" font-family="sans-serif" font-size="10" pointer-events="none" text-anchor="middle">Praveena</text></g><g class="node" transform="translate(21.412243378148858,116.21054179319287)"><circle cx="0" cy="0" r="40" fill="#4C8EDA" stroke="#2870c2" stroke-width="2" class="outline"/><text y="5" fill="#FFF" font-family="sans-serif" font-size="10" pointer-events="none" text-anchor="middle">Zhen</text></g><g class="node" transform="translate(152.71430863536824,211.44202278962518)"><circle cx="0" cy="0" r="40" fill="#4C8EDA" stroke="#2870c2" stroke-width="2" class="outline"/><text y="5" fill="#FFF" font-family="sans-serif" font-size="10" pointer-events="none" text-anchor="middle">Martin</text></g><g class="node" transform="translate(179.37142990230473,93.57070625518612)"><circle cx="0" cy="0" r="40" fill="#ECB5C9" stroke="#da7298" stroke-width="2" class="outline"/><text y="5" fill="#604A0E" font-family="sans-serif" font-size="10" pointer-events="none" text-anchor="middle">Lju</text></g><g class="node" transform="translate(122.63719576047832,-14.367747249835695)"><circle cx="0" cy="0" r="40" fill="#FFC454" stroke="#d7a013" stroke-width="2" class="outline"/><text y="5" fill="#604A0E" font-family="sans-serif" font-size="10" pointer-events="none" text-anchor="middle">Stefan</text></g></g></svg>